# 3ds Max Wavefront OBJ Exporter v0.99 - (c)2007 guruware
# File Created: 12.05.2025 22:11:07

mtllib Fireplace1.mtl

#
# object Box02
#

v  -1.1781 0.2763 9.0516
v  -1.1781 0.2763 8.2016
v  0.2500 0.2763 8.2016
v  0.2500 0.2763 9.0516
v  -1.1781 0.3263 9.0516
v  0.2500 0.3263 9.0516
v  0.2500 0.3263 8.2016
v  -1.1781 0.3263 8.2016
# 8 vertices

vn 0.0000 -1.0000 -0.0000
vn 0.0000 1.0000 -0.0000
vn 0.0000 0.0000 1.0000
vn 1.0000 0.0000 -0.0000
vn 0.0000 0.0000 -1.0000
vn -1.0000 0.0000 -0.0000
# 6 vertex normals

vt 0.9995 -0.2000 0.4864
vt 0.9995 0.3954 0.4864
vt 0.0005 0.3954 0.4864
vt 0.0005 -0.2000 0.4864
vt 0.0005 -0.2000 0.5136
vt 0.9995 -0.2000 0.5136
vt 0.9995 0.3954 0.5136
vt 0.0005 0.3954 0.5136
vt 0.0005 0.4864 -0.2000
vt 0.9995 0.4864 -0.2000
vt 0.9995 0.5136 -0.2000
vt 0.0005 0.5136 -0.2000
vt -0.2000 0.4864 0.9995
vt 0.3954 0.4864 0.9995
vt 0.3954 0.5136 0.9995
vt -0.2000 0.5136 0.9995
vt 0.0005 0.4864 0.3954
vt 0.9995 0.4864 0.3954
vt 0.9995 0.5136 0.3954
vt 0.0005 0.5136 0.3954
vt 0.6046 0.4864 0.0005
vt 1.2000 0.4864 0.0005
vt 1.2000 0.5136 0.0005
vt 0.6046 0.5136 0.0005
# 24 texture coords

o Box02
g Box02
usemtl Bricks1
s 2
f 1/1/1 2/2/1 3/3/1 
f 3/3/1 4/4/1 1/1/1 
s 4
f 5/5/2 6/6/2 7/7/2 
f 7/7/2 8/8/2 5/5/2 
s 8
f 1/9/3 4/10/3 6/11/3 
f 6/11/3 5/12/3 1/9/3 
s 16
f 4/13/4 3/14/4 7/15/4 
f 7/15/4 6/16/4 4/13/4 
s 32
f 3/17/5 2/18/5 8/19/5 
f 8/19/5 7/20/5 3/17/5 
s 64
f 2/21/6 1/22/6 5/23/6 
f 5/23/6 8/24/6 2/21/6 
# 12 faces

#
# object C_Ext01
#

v  0.1121 1.1319 8.9183
v  0.2121 1.1319 8.9183
v  0.2121 1.1319 8.1763
v  0.1121 1.1319 8.2763
v  -1.1485 1.1319 8.1763
v  -1.0485 1.1319 8.2763
v  -1.1485 1.1319 8.9183
v  -1.0485 1.1319 8.9183
v  0.2121 0.3195 8.9183
v  0.2121 0.3195 8.1763
v  -1.1485 0.3195 8.1763
v  -1.1485 0.3195 8.9183
v  -1.0485 0.3195 8.9183
v  -1.0485 0.3195 8.2763
v  0.1121 0.3195 8.2763
v  0.1121 0.3195 8.9183
# 16 vertices

vn 0.0000 1.0000 -0.0000
vn 1.0000 0.0000 -0.0000
vn -0.0000 0.0000 -1.0000
vn -1.0000 0.0000 0.0000
vn 0.0000 0.0000 1.0000
vn 0.0000 -1.0000 -0.0000
# 6 vertex normals

vt 0.0583 0.0767 0.7951
vt 0.0583 0.0032 0.7951
vt 0.5112 0.0032 0.7951
vt 0.4502 0.0767 0.7951
vt 0.5112 1.0022 0.7951
vt 0.4502 0.9288 0.7951
vt 0.0583 1.0022 0.7951
vt 0.0583 0.9288 0.7951
vt 0.0583 0.7951 0.0032
vt 0.0583 0.2049 0.0032
vt 0.5112 0.2049 0.0032
vt 0.5112 0.7951 0.0032
vt 0.0032 0.7951 0.5112
vt 0.0032 0.2049 0.5112
vt 1.0022 0.2049 0.5112
vt 1.0022 0.7951 0.5112
vt 0.4888 0.7951 1.0022
vt 0.4888 0.2049 1.0022
vt 0.9417 0.2049 1.0022
vt 0.9417 0.7951 1.0022
vt -0.0022 0.7951 0.0583
vt -0.0022 0.2049 0.0583
vt 0.0712 0.2049 0.0583
vt 0.0712 0.7951 0.0583
vt 0.0583 0.7951 0.9288
vt 0.0583 0.2049 0.9288
vt 0.4502 0.2049 0.9288
vt 0.4502 0.7951 0.9288
vt 0.0712 0.7951 0.4502
vt 0.0712 0.2049 0.4502
vt 0.9233 0.2049 0.4502
vt 0.9233 0.7951 0.4502
vt 0.5498 0.7951 0.0767
vt 0.5498 0.2049 0.0767
vt 0.9417 0.2049 0.0767
vt 0.9417 0.7951 0.0767
vt 0.9233 0.7951 0.0583
vt 0.9233 0.2049 0.0583
vt 0.9968 0.2049 0.0583
vt 0.9968 0.7951 0.0583
vt 0.9417 0.0032 0.2049
vt 0.9417 0.0767 0.2049
vt 0.5498 0.0767 0.2049
vt 0.4888 0.0032 0.2049
vt 0.5498 0.9288 0.2049
vt 0.4888 1.0022 0.2049
vt 0.9417 0.9288 0.2049
vt 0.9417 1.0022 0.2049
# 48 texture coords

o C_Ext01
g C_Ext01
usemtl Bricks1
s 1
f 9/25/7 10/26/7 11/27/7 
f 9/25/7 11/27/7 12/28/7 
f 12/28/7 11/27/7 13/29/7 
f 12/28/7 13/29/7 14/30/7 
f 14/30/7 13/29/7 15/31/7 
f 14/30/7 15/31/7 16/32/7 
s 2
f 10/33/8 17/34/8 18/35/8 
f 10/33/8 18/35/8 11/36/8 
s 4
f 11/37/9 18/38/9 19/39/9 
f 11/37/9 19/39/9 13/40/9 
s 2
f 13/41/10 19/42/10 20/43/10 
f 13/41/10 20/43/10 15/44/10 
s 4
f 15/45/11 20/46/11 21/47/11 
f 15/45/11 21/47/11 16/48/11 
s 2
f 16/49/8 21/50/8 22/51/8 
f 16/49/8 22/51/8 14/52/8 
s 4
f 14/53/11 22/54/11 23/55/11 
f 14/53/11 23/55/11 12/56/11 
s 2
f 12/57/10 23/58/10 24/59/10 
f 12/57/10 24/59/10 9/60/10 
s 4
f 9/61/11 24/62/11 17/63/11 
f 9/61/11 17/63/11 10/64/11 
s 1
f 17/65/12 24/66/12 23/67/12 
f 17/65/12 23/67/12 18/68/12 
f 18/68/12 23/67/12 22/69/12 
f 18/68/12 22/69/12 19/70/12 
f 19/70/12 22/69/12 21/71/12 
f 19/70/12 21/71/12 20/72/12 
# 28 faces

#
# object Box03
#

v  -1.1640 1.1103 9.0314
v  -1.1640 1.1103 8.1314
v  0.2360 1.1103 8.1314
v  0.2360 1.1103 9.0314
v  -1.1640 1.2403 9.0314
v  0.2360 1.2403 9.0314
v  0.2360 1.2403 8.1314
v  -1.1640 1.2403 8.1314
# 8 vertices

vn 0.0000 -1.0000 -0.0000
vn 0.0000 1.0000 -0.0000
vn 0.0000 0.0000 1.0000
vn 1.0000 0.0000 -0.0000
vn 0.0000 0.0000 -1.0000
vn -1.0000 0.0000 -0.0000
# 6 vertex normals

vt 1.1044 -0.0134 -0.9245
vt 1.1044 0.8740 -0.9245
vt -0.1084 0.8740 -0.9245
vt -0.1084 -0.0134 -0.9245
vt -0.1044 -0.0134 -0.7867
vt 1.1084 -0.0134 -0.7867
vt 1.1084 0.8740 -0.7867
vt -0.1044 0.8740 -0.7867
vt -0.1044 -0.9245 -0.0134
vt 1.1084 -0.9245 -0.0134
vt 1.1084 -0.7867 -0.0134
vt -0.1044 -0.7867 -0.0134
vt -0.0134 -0.9245 1.1084
vt 0.8740 -0.9245 1.1084
vt 0.8740 -0.7867 1.1084
vt -0.0134 -0.7867 1.1084
vt -0.1084 -0.9245 0.8740
vt 1.1044 -0.9245 0.8740
vt 1.1044 -0.7867 0.8740
vt -0.1084 -0.7867 0.8740
vt 0.1260 -0.9245 -0.1044
vt 1.0134 -0.9245 -0.1044
vt 1.0134 -0.7867 -0.1044
vt 0.1260 -0.7867 -0.1044
# 24 texture coords

o Box03
g Box03
usemtl Stucco1
s 2
f 25/73/13 26/74/13 27/75/13 
f 27/75/13 28/76/13 25/73/13 
s 4
f 29/77/14 30/78/14 31/79/14 
f 31/79/14 32/80/14 29/77/14 
s 8
f 25/81/15 28/82/15 30/83/15 
f 30/83/15 29/84/15 25/81/15 
s 16
f 28/85/16 27/86/16 31/87/16 
f 31/87/16 30/88/16 28/85/16 
s 32
f 27/89/17 26/90/17 32/91/17 
f 32/91/17 31/92/17 27/89/17 
s 64
f 26/93/18 25/94/18 29/95/18 
f 29/95/18 32/96/18 26/93/18 
# 12 faces

#
# object Box04
#

v  -1.1781 1.2150 9.0516
v  -1.1781 1.2150 8.2016
v  0.2500 1.2150 8.2016
v  0.2500 1.2150 9.0516
v  -1.1781 1.2450 9.0516
v  0.2500 1.2450 9.0516
v  0.2500 1.2450 8.2016
v  -1.1781 1.2450 8.2016
# 8 vertices

vn 0.0000 -1.0000 -0.0000
vn 0.0000 1.0000 -0.0000
vn 0.0000 0.0000 1.0000
vn 1.0000 0.0000 -0.0000
vn 0.0000 0.0000 -1.0000
vn -1.0000 0.0000 -0.0000
# 6 vertex normals

vt 0.9995 0.0150 0.7891
vt 0.9995 0.9850 0.7891
vt 0.0005 0.9850 0.7891
vt 0.0005 0.0150 0.7891
vt 0.0005 0.0150 0.8314
vt 0.9995 0.0150 0.8314
vt 0.9995 0.9850 0.8314
vt 0.0005 0.9850 0.8314
vt 0.0005 0.7891 0.0150
vt 0.9995 0.7891 0.0150
vt 0.9995 0.8314 0.0150
vt 0.0005 0.8314 0.0150
vt 0.0150 0.7891 0.9995
vt 0.9850 0.7891 0.9995
vt 0.9850 0.8314 0.9995
vt 0.0150 0.8314 0.9995
vt 0.0005 0.7891 0.9850
vt 0.9995 0.7891 0.9850
vt 0.9995 0.8314 0.9850
vt 0.0005 0.8314 0.9850
vt 0.0150 0.7891 0.0005
vt 0.9850 0.7891 0.0005
vt 0.9850 0.8314 0.0005
vt 0.0150 0.8314 0.0005
# 24 texture coords

o Box04
g Box04
usemtl Marble1
s 2
f 33/97/19 34/98/19 35/99/19 
f 35/99/19 36/100/19 33/97/19 
s 4
f 37/101/20 38/102/20 39/103/20 
f 39/103/20 40/104/20 37/101/20 
s 8
f 33/105/21 36/106/21 38/107/21 
f 38/107/21 37/108/21 33/105/21 
s 16
f 36/109/22 35/110/22 39/111/22 
f 39/111/22 38/112/22 36/109/22 
s 32
f 35/113/23 34/114/23 40/115/23 
f 40/115/23 39/116/23 35/113/23 
s 64
f 34/117/24 33/118/24 37/119/24 
f 37/119/24 40/120/24 34/117/24 
# 12 faces

#
# object Plane02
#

v  -1.0679 1.1100 8.2477
v  -1.0679 0.2931 8.2477
v  0.0784 1.1100 8.2477
v  0.0784 0.2931 8.2477
# 4 vertices

vn 0.0000 -0.0000 1.0000
# 1 vertex normals

vt 0.0000 0.9400 0.0000
vt 0.0000 0.3300 0.0000
vt 1.0000 0.9400 0.0000
vt 1.0000 0.3300 0.0000
# 4 texture coords

o Plane02
g Plane02
usemtl Soot2
s 1
f 41/121/25 42/122/25 43/123/25 
f 44/124/25 43/123/25 42/122/25 
# 2 faces

#
# object Plane01
#

v  -1.1228 0.3363 8.1875
v  -1.1228 0.3363 8.8745
v  0.1690 0.3363 8.1875
v  0.1690 0.3363 8.8745
# 4 vertices

vn 0.0000 1.0000 -0.0000
# 1 vertex normals

vt 0.0400 0.9000 0.0000
vt 0.0400 0.0000 0.0000
vt 0.9200 0.9000 0.0000
vt 0.9200 0.0000 0.0000
# 4 texture coords

o Plane01
g Plane01
usemtl Soot2
s 1
f 45/125/26 46/126/26 47/127/26 
f 48/128/26 47/127/26 46/126/26 
# 2 faces

#
# object Box01
#

v  -1.1640 -0.0016 9.0314
v  -1.1640 -0.0016 8.1314
v  0.2360 -0.0016 8.1314
v  0.2360 -0.0016 9.0314
v  -1.1640 0.2984 9.0314
v  0.2360 0.2984 9.0314
v  0.2360 0.2984 8.1314
v  -1.1640 0.2984 8.1314
# 8 vertices

vn 0.0000 -1.0000 -0.0000
vn 0.0000 1.0000 -0.0000
vn 0.0000 0.0000 1.0000
vn 1.0000 0.0000 -0.0000
vn 0.0000 0.0000 -1.0000
vn -1.0000 0.0000 -0.0000
# 6 vertex normals

vt 1.1044 -0.0134 -2.1030
vt 1.1044 0.8740 -2.1030
vt -0.1084 0.8740 -2.1030
vt -0.1084 -0.0134 -2.1030
vt -0.1044 -0.0134 -1.7850
vt 1.1084 -0.0134 -1.7850
vt 1.1084 0.8740 -1.7850
vt -0.1044 0.8740 -1.7850
vt -0.1044 -2.1030 -0.0134
vt 1.1084 -2.1030 -0.0134
vt 1.1084 -1.7850 -0.0134
vt -0.1044 -1.7850 -0.0134
vt -0.0134 -2.1030 1.1084
vt 0.8740 -2.1030 1.1084
vt 0.8740 -1.7850 1.1084
vt -0.0134 -1.7850 1.1084
vt -0.1084 -2.1030 0.8740
vt 1.1044 -2.1030 0.8740
vt 1.1044 -1.7850 0.8740
vt -0.1084 -1.7850 0.8740
vt 0.1260 -2.1030 -0.1044
vt 1.0134 -2.1030 -0.1044
vt 1.0134 -1.7850 -0.1044
vt 0.1260 -1.7850 -0.1044
# 24 texture coords

o Box01
g Box01
usemtl Stucco1
s 2
f 49/129/27 50/130/27 51/131/27 
f 51/131/27 52/132/27 49/129/27 
s 4
f 53/133/28 54/134/28 55/135/28 
f 55/135/28 56/136/28 53/133/28 
s 8
f 49/137/29 52/138/29 54/139/29 
f 54/139/29 53/140/29 49/137/29 
s 16
f 52/141/30 51/142/30 55/143/30 
f 55/143/30 54/144/30 52/141/30 
s 32
f 51/145/31 50/146/31 56/147/31 
f 56/147/31 55/148/31 51/145/31 
s 64
f 50/149/32 49/150/32 53/151/32 
f 53/151/32 56/152/32 50/149/32 
# 12 faces

#
# object Box05
#

v  -1.0429 1.1622 8.8401
v  -1.0429 1.1622 8.1812
v  0.1103 1.1622 8.1812
v  0.1103 1.1622 8.8401
v  -0.7896 3.7466 8.5483
v  -0.1430 3.7466 8.5483
v  -0.1430 3.7466 8.1812
v  -0.7896 3.7466 8.1812
v  -0.1430 2.4491 8.5483
v  -0.7896 2.4491 8.5483
v  -0.1430 2.4491 8.1812
v  -0.7896 2.4491 8.1812
# 12 vertices

vn 0.0000 -1.0000 -0.0000
vn 0.0000 1.0000 -0.0000
vn 0.0000 0.2211 0.9752
vn 0.0000 0.1176 0.9931
vn 0.0000 -0.0000 1.0000
vn 0.9812 0.1931 0.0000
vn 0.9953 0.0970 0.0000
vn 0.9946 0.1033 -0.0000
vn 1.0000 0.0000 -0.0000
vn 0.0000 0.0000 -1.0000
vn -0.9812 0.1931 0.0000
vn -0.9946 0.1033 0.0000
vn -0.9953 0.0970 -0.0000
vn -1.0000 0.0000 -0.0000
# 14 vertex normals

vt 0.9995 0.1752 -0.8695
vt 0.9995 0.8248 -0.8695
vt 0.0005 0.8248 -0.8695
vt 0.0005 0.1752 -0.8695
vt 0.2199 0.4629 1.8695
vt 0.7801 0.4629 1.8695
vt 0.7801 0.8248 1.8695
vt 0.2199 0.8248 1.8695
vt 0.0005 -0.8695 0.1752
vt 0.9995 -0.8695 0.1752
vt 0.7801 0.4944 0.4629
vt 0.2199 0.4944 0.4629
vt 0.7801 1.8695 0.4629
vt 0.2199 1.8695 0.4629
vt 0.1752 -0.8695 0.9995
vt 0.8248 -0.8695 0.9995
vt 0.8248 0.4944 0.7801
vt 0.4629 0.4944 0.7801
vt 0.8248 1.8695 0.7801
vt 0.4629 1.8695 0.7801
vt 0.0005 -0.8695 0.8248
vt 0.9995 -0.8695 0.8248
vt 0.7801 0.4944 0.8248
vt 0.2199 0.4944 0.8248
vt 0.7801 1.8695 0.8248
vt 0.2199 1.8695 0.8248
vt 0.1752 -0.8695 0.0005
vt 0.8248 -0.8695 0.0005
vt 0.5371 0.4944 0.2199
vt 0.1752 0.4944 0.2199
vt 0.5371 1.8695 0.2199
vt 0.1752 1.8695 0.2199
# 32 texture coords

o Box05
g Box05
usemtl Stucco1
s 2
f 57/153/33 58/154/33 59/155/33 
f 59/155/33 60/156/33 57/153/33 
s 4
f 61/157/34 62/158/34 63/159/34 
f 63/159/34 64/160/34 61/157/34 
s 8
f 57/161/35 60/162/35 65/163/36 
f 65/163/36 66/164/36 57/161/35 
f 66/164/36 65/163/36 62/165/37 
f 62/165/37 61/166/37 66/164/36 
s 16
f 60/167/38 59/168/38 67/169/39 
f 67/169/39 65/170/40 60/167/38 
f 65/170/40 67/169/39 63/171/41 
f 63/171/41 62/172/41 65/170/40 
s 32
f 59/173/42 58/174/42 68/175/42 
f 68/175/42 67/176/42 59/173/42 
f 67/176/42 68/175/42 64/177/42 
f 64/177/42 63/178/42 67/176/42 
s 64
f 58/179/43 57/180/43 66/181/44 
f 66/181/44 68/182/45 58/179/43 
f 68/182/45 66/181/44 61/183/46 
f 61/183/46 64/184/46 68/182/45 
# 20 faces

