# 3ds Max Wavefront OBJ Exporter v0.99 - (c)2007 guruware
# File Created: 12.05.2025 22:12:28

mtllib OldBuildingFloorBoards1Small.mtl

#
# object Box01
#

v  -1.0000 0.0000 1.0225
v  -1.0000 0.0000 -0.9903
v  1.0000 0.0000 -0.9903
v  1.0000 0.0000 1.0225
v  -1.0000 0.0500 1.0225
v  1.0000 0.0500 1.0225
v  1.0000 0.0500 -0.9903
v  -1.0000 0.0500 -0.9903
v  -1.0035 -0.1191 0.0531
v  -1.0035 -0.1052 0.0615
v  -1.0035 -0.1052 -0.0585
v  -1.0035 -0.1191 -0.0502
v  -1.0035 0.0009 0.0615
v  -1.0035 0.0009 -0.0585
v  0.9965 -0.1191 0.0531
v  0.9965 -0.1191 -0.0502
v  0.9965 -0.1052 -0.0585
v  0.9965 -0.1052 0.0615
v  0.9965 0.0009 -0.0585
v  0.9965 0.0009 0.0615
# 20 vertices

vn 0.0000 -1.0000 -0.0000
vn 0.0000 1.0000 -0.0000
vn 0.0000 0.0000 1.0000
vn 1.0000 0.0000 -0.0000
vn 0.0000 0.0000 -1.0000
vn -1.0000 0.0000 -0.0000
vn -0.0000 -1.0000 0.0000
vn -0.0000 -0.7667 -0.6420
vn -0.0000 0.0000 -1.0000
vn 0.0000 -0.0000 1.0000
vn 0.0000 -0.7667 0.6420
# 11 vertex normals

vt 0.9810 0.0010 0.0005
vt 0.9810 1.9990 0.0005
vt 2.9790 1.9990 0.0005
vt 2.9790 0.0010 0.0005
vt 0.9810 0.0010 0.9995
vt 2.9790 0.0010 0.9995
vt 2.9790 1.9990 0.9995
vt 0.9810 1.9990 0.9995
vt 0.9810 0.1863 39.1522
vt 2.9790 0.1863 39.1522
vt 2.9790 0.1981 39.5990
vt 0.9810 0.1981 39.5990
vt 1.5601 0.0010 20.2880
vt 1.5601 1.9990 20.2880
vt 1.4793 1.9990 20.5456
vt 1.4793 0.0010 20.5456
vt 2.9790 0.3019 -38.5990
vt 0.9810 0.3019 -38.5990
vt 0.9810 0.3137 -38.1522
vt 2.9790 0.3137 -38.1522
vt 1.4807 1.9990 -19.5456
vt 1.4807 0.0010 -19.5456
vt 1.3999 0.0010 -19.2880
vt 1.3999 1.9990 -19.2880
vt 0.5627 -0.2398 0.6756
vt 0.5654 -0.2398 0.3953
vt 0.6617 -0.2398 1.7415
vt 0.6456 -0.2398 1.8338
vt 0.3070 0.4275 0.0005
vt 0.3070 0.5725 0.0005
vt 0.4520 0.5725 0.0005
vt 0.4520 0.4275 0.0005
vt 0.5627 1.2398 0.6756
vt 0.6456 1.2398 1.8338
vt 0.6617 1.2398 1.7415
vt 0.5654 1.2398 0.3953
vt 0.3070 0.4275 0.9995
vt 0.4520 0.4275 0.9995
vt 0.4520 0.5725 0.9995
vt 0.3070 0.5725 0.9995
vt 0.7331 -0.2398 0.3235
vt 0.7331 1.2398 0.3235
vt 0.6368 -0.2398 -1.0227
vt 0.6368 1.2398 -1.0226
# 44 texture coords

o Box01
g Box01
usemtl FloorBoards1
s 2
f 1/1/1 2/2/1 3/3/1 
f 3/3/1 4/4/1 1/1/1 
s 4
f 5/5/2 6/6/2 7/7/2 
f 7/7/2 8/8/2 5/5/2 
s 8
f 1/9/3 4/10/3 6/11/3 
f 6/11/3 5/12/3 1/9/3 
s 16
f 4/13/4 3/14/4 7/15/4 
f 7/15/4 6/16/4 4/13/4 
s 32
f 3/17/5 2/18/5 8/19/5 
f 8/19/5 7/20/5 3/17/5 
s 64
f 2/21/6 1/22/6 5/23/6 
f 5/23/6 8/24/6 2/21/6 
s off
f 9/25/6 10/26/6 11/27/6 
f 11/27/6 12/28/6 9/25/6 
f 10/29/6 13/30/6 14/31/6 
f 14/31/6 11/32/6 10/29/6 
f 15/33/4 16/34/4 17/35/4 
f 17/35/4 18/36/4 15/33/4 
f 18/37/4 17/38/4 19/39/4 
f 19/39/4 20/40/4 18/37/4 
f 9/25/7 12/28/7 16/34/7 
f 16/34/7 15/33/7 9/25/7 
f 12/28/8 11/27/8 17/35/8 
f 17/35/8 16/34/8 12/28/8 
f 11/27/9 14/41/9 19/42/9 
f 19/42/9 17/35/9 11/27/9 
f 14/41/2 13/43/2 20/44/2 
f 20/44/2 19/42/2 14/41/2 
f 13/43/10 10/26/10 18/36/10 
f 18/36/3 20/44/3 13/43/3 
f 10/26/11 9/25/11 15/33/11 
f 15/33/11 18/36/11 10/26/11 
# 32 faces

