# 3ds Max Wavefront OBJ Exporter v0.99 - (c)2007 guruware
# File Created: 12.05.2025 22:23:02

mtllib OldHouseStoneWallSmall.mtl

#
# object Box01
#

v  -0.0019 0.0000 1.7554
v  -0.0019 0.0000 -0.2410
v  0.2905 0.0000 -0.2410
v  0.2905 0.0000 1.7554
v  -0.0019 3.5088 1.7554
v  0.2905 3.5088 1.7554
v  0.2905 3.5088 -0.2410
v  -0.0019 3.5088 -0.2410
# 8 vertices

vn 0.0000 -1.0000 -0.0000
vn 0.0000 1.0000 -0.0000
vn 0.0000 0.0000 1.0000
vn 1.0000 0.0000 -0.0000
vn 0.0000 0.0000 -1.0000
vn -1.0000 0.0000 -0.0000
# 6 vertex normals

vt 1.4472 0.5339 0.1183
vt 1.4472 0.9678 0.1183
vt 1.3728 0.9678 0.1183
vt 1.3728 0.5339 0.1183
vt 1.3728 0.5339 0.9389
vt 1.4472 0.5339 0.9389
vt 1.4472 0.9678 0.9389
vt 1.3728 0.9678 0.9389
vt 1.3728 0.1606 0.4842
vt 1.4472 0.1606 0.4842
vt 1.4472 0.9977 0.4842
vt 1.3728 0.9977 0.4842
vt -0.5642 0.1606 0.5372
vt -0.9896 0.1606 0.5372
vt -0.9896 0.9977 0.5372
vt -0.5642 0.9977 0.5372
vt 2.0089 0.1606 0.9096
vt 2.0447 0.1606 0.9096
vt 2.0447 0.9977 0.9096
vt 2.0089 0.9977 0.9096
vt 1.0004 0.1606 0.4628
vt 1.4258 0.1606 0.4628
vt 1.4258 0.9977 0.4628
vt 1.0004 0.9977 0.4628
# 24 texture coords

o Box01
g Box01
usemtl HouseStoneWall
s 2
f 1/1/1 2/2/1 3/3/1 
f 3/3/1 4/4/1 1/1/1 
s 4
f 5/5/2 6/6/2 7/7/2 
f 7/7/2 8/8/2 5/5/2 
s 8
f 1/9/3 4/10/3 6/11/3 
f 6/11/3 5/12/3 1/9/3 
s 16
f 4/13/4 3/14/4 7/15/4 
f 7/15/4 6/16/4 4/13/4 
s 32
f 3/17/5 2/18/5 8/19/5 
f 8/19/5 7/20/5 3/17/5 
s 64
f 2/21/6 1/22/6 5/23/6 
f 5/23/6 8/24/6 2/21/6 
# 12 faces

