# 3ds Max Wavefront OBJ Exporter v0.99 - (c)2007 guruware
# File Created: 12.05.2025 22:15:13

mtllib OldHouseBaseSegment1.mtl

#
# object ChamferBox01
#

v  -0.0096 2.5258 1.3096
v  -0.0106 2.7701 1.2298
v  -0.0903 2.6202 1.1380
v  -0.0869 1.8010 1.1380
v  -0.0327 1.8010 1.3122
v  -0.1280 0.6078 1.1403
v  -0.0342 0.9644 1.3122
v  -0.0853 0.1452 1.1394
v  -0.0015 0.1437 1.3110
v  -0.0002 -0.0047 1.1899
v  1.2201 -0.0077 1.1963
v  1.1687 0.1743 1.3110
v  1.3284 0.1614 1.1472
v  1.2292 0.9542 1.1090
v  1.0962 0.9624 1.3122
v  0.8626 2.5070 1.3096
v  0.9756 2.5221 1.2008
v  0.8230 2.7701 1.2298
v  -0.0098 2.7736 0.0026
v  -0.0619 2.6202 0.0026
v  -0.0863 1.8020 0.0026
v  -0.0327 -0.0071 0.0017
v  -0.0856 0.1289 0.0026
v  0.8112 2.7771 0.0026
v  0.9765 2.5392 -1.1038
v  0.8230 2.7701 -1.2397
v  -0.0100 2.7701 -1.2397
v  -0.0688 2.6202 -1.1328
v  -0.0858 1.8010 -1.1328
v  -0.0848 0.1452 -1.1349
v  -0.0002 -0.0047 -1.2484
v  -0.0090 2.6202 -1.3043
v  -0.0327 1.8010 -1.3069
v  -0.0336 0.9644 -1.3069
v  -0.1108 1.2837 -1.1541
v  -0.0015 0.1437 -1.3064
v  1.1687 0.0910 -1.3064
v  1.2201 -0.0077 -1.2730
v  1.2827 0.1329 -1.2282
v  1.2278 0.9629 -1.1038
v  1.0962 0.9624 -1.3069
v  1.0901 2.0235 -1.1262
v  0.9604 1.8010 -1.3069
v  0.8626 2.6202 -1.3043
v  -0.0920 0.9646 0.1837
v  -0.0924 1.0339 0.1159
v  -0.0870 1.0841 0.0570
v  -0.0876 1.1786 -0.1721
v  -0.1395 0.4830 0.1150
v  -0.1168 0.4273 0.1906
v  -0.0934 0.9120 0.2006
v  -0.1440 0.8871 0.0901
v  -0.1387 0.3193 0.0456
v  -0.0912 0.3163 0.1173
v  -0.0871 0.2614 -0.0228
v  -0.1386 0.3193 -0.8021
v  -0.0887 0.2638 -0.7963
v  -0.1073 0.8893 -0.9231
v  -0.0911 0.4072 -0.9487
v  -0.1394 0.4039 -0.8068
v  -0.1444 0.9191 -0.7803
v  -0.1849 0.8209 -0.6459
v  -0.1452 0.9676 -0.8021
v  -0.1802 0.4054 0.0108
v  -0.1849 0.8241 -0.0317
v  -0.1802 0.4054 -0.6826
v  -0.1447 0.9595 0.0250
v  1.3070 0.0385 0.3896
v  1.3339 0.0819 0.4490
v  1.2504 -0.0100 0.3845
v  1.4000 0.5406 0.2165
v  1.2735 0.6648 0.2070
v  1.3194 0.4590 0.4251
v  1.4130 0.4712 0.3114
v  1.2909 0.7272 -0.9325
v  1.3844 0.5406 -0.9421
v  1.2932 0.6073 -1.0707
v  1.3846 0.4712 -1.0369
v  1.3339 0.1330 -1.1101
v  1.3850 0.1131 -1.0369
v  1.3010 0.0262 -1.0828
v  0.9706 -0.0296 -0.6789
v  1.1705 -0.0221 -1.0221
v  1.2494 -0.0233 -0.8093
v  1.0306 -0.0285 0.2051
v  1.2340 -0.0233 0.2151
v  1.1705 -0.0121 0.3758
v  1.3815 -0.0207 0.2165
v  1.4453 0.0487 0.2165
v  1.3850 0.0487 0.3114
v  1.4453 0.0487 -0.9421
v  1.4453 0.4712 -0.9421
v  1.4453 0.4712 0.2165
v  1.3815 -0.0207 -0.9421
v  1.0202 2.1081 1.1680
v  0.9877 2.0048 1.2267
v  1.1391 2.0137 1.2074
v  1.1341 2.0921 1.0995
v  1.0600 2.0754 0.2064
v  1.0570 2.3243 0.3432
v  1.1351 2.1259 0.3370
v  1.1412 1.9987 0.1977
v  1.0671 2.0169 0.1656
v  1.1790 1.5371 0.2676
v  1.1394 1.5451 0.1652
v  1.0935 1.7715 0.1242
v  1.1517 1.2006 0.3302
v  1.1852 1.4588 0.3370
v  1.1524 1.4057 1.1364
v  1.1842 1.4587 1.1847
v  1.1149 1.4019 1.2059
v  1.1769 1.5369 1.2541
v  1.0605 1.5219 1.2457
v  1.2381 1.5430 1.1847
v  1.2013 1.9696 1.1215
v  1.2381 1.5779 0.3523
v  1.2013 1.9766 0.3755
v  1.0005 1.7984 1.2587
v  0.9576 1.8010 1.3153
v  -0.0871 0.3513 -0.9243
v  -0.1074 0.9646 -0.8753
v  -0.1072 1.0047 -0.7964
v  1.2409 -0.0100 -1.0274
v  1.0503 2.1556 1.0982
# 124 vertices

vn -0.8813 0.0439 0.4706
vn -0.9106 0.3415 0.2326
vn -0.9561 0.2084 0.2059
vn -0.9858 0.0191 0.1666
vn -0.9418 0.0307 0.3347
vn -0.9496 -0.0422 0.3107
vn -0.8527 -0.0075 0.5223
vn -0.9408 -0.2484 0.2307
vn -0.8695 -0.1579 0.4680
vn -0.8757 -0.4319 0.2160
vn -0.0017 -0.3071 0.9517
vn -0.0043 -0.8943 0.4475
vn 0.4322 -0.7638 0.4794
vn 0.3460 -0.1713 0.9225
vn 0.9138 -0.1500 0.3775
vn 0.9452 0.1369 0.2965
vn 0.4593 0.0507 0.8868
vn 0.3275 0.1657 0.9302
vn 0.8621 0.3080 0.4024
vn 0.4052 0.7510 0.5213
vn 0.0020 0.7989 0.6015
vn 0.0031 0.1454 0.9894
vn -0.9460 0.3240 0.0029
vn -0.9834 0.1813 -0.0053
vn -0.9999 0.0150 -0.0001
vn -0.9293 -0.3692 -0.0097
vn -0.9795 -0.2009 -0.0111
vn 0.4679 0.8838 0.0023
vn 0.9151 0.3548 -0.1918
vn 0.4093 0.7718 -0.4866
vn -0.0042 1.0000 0.0000
vn -0.9498 0.2571 -0.1783
vn -0.9762 0.1596 -0.1466
vn -0.9854 0.0258 -0.1683
vn -0.9561 -0.2148 -0.1993
vn -0.9093 -0.3364 -0.2449
vn -0.0010 0.8251 -0.5651
vn -0.9306 0.0740 -0.3584
vn -0.9466 0.0109 -0.3222
vn -0.9015 -0.0251 -0.4321
vn -0.9536 0.0332 -0.2992
vn -0.8788 -0.0938 -0.4679
vn -0.0107 -0.8208 -0.5710
vn -0.0073 -0.1624 -0.9867
vn 0.2396 -0.0740 -0.9680
vn 0.4128 -0.6724 -0.6144
vn 0.7642 -0.0297 -0.6442
vn 0.9358 0.1405 -0.3232
vn 0.4594 0.0471 -0.8870
vn 0.9226 0.1427 -0.3584
vn 0.3768 0.0576 -0.9245
vn 0.4853 0.2651 -0.8332
vn 0.0000 0.1850 -0.9827
vn -0.9867 0.0861 0.1379
vn -0.9812 0.1763 0.0781
vn -0.9966 0.0816 0.0137
vn -0.9982 0.0515 0.0321
vn -0.9318 -0.0222 0.3623
vn -0.9796 -0.1313 0.1519
vn -0.9843 0.0646 0.1642
vn -0.9201 0.1450 0.3640
vn -0.7858 -0.5546 0.2739
vn -0.9372 -0.2921 0.1908
vn -0.9387 -0.3438 0.0269
vn -0.8615 -0.4262 -0.2761
vn -0.9487 -0.3044 -0.0859
vn -0.9905 0.0135 -0.1365
vn -0.9860 -0.0564 -0.1569
vn -0.9390 -0.0146 -0.3436
vn -0.9187 -0.0849 -0.3858
vn -0.9884 0.0981 -0.1160
vn -0.8910 0.3001 -0.3406
vn -0.9538 -0.2028 0.2215
vn -0.9842 0.1143 0.1353
vn -0.9752 -0.1795 -0.1292
vn -0.9164 0.3756 0.1379
vn 0.6027 -0.7330 0.3152
vn 0.9061 -0.3585 0.2244
vn 0.2803 -0.9503 0.1357
vn 0.7318 0.6365 0.2437
vn 0.9247 0.3647 0.1094
vn 0.8901 0.2995 0.3434
vn 0.7732 0.3659 0.5180
vn 0.9455 0.3116 -0.0950
vn 0.8153 0.5355 -0.2203
vn 0.8631 0.2334 -0.4479
vn 0.6986 0.2243 -0.6795
vn 0.8243 -0.1395 -0.5487
vn 0.7580 -0.1844 -0.6256
vn 0.6349 -0.6562 -0.4077
vn -0.0214 -0.9994 -0.0280
vn 0.0156 -0.9975 -0.0686
vn 0.0177 -0.9998 -0.0052
vn 0.0073 -0.9998 0.0202
vn 0.0200 -0.9989 0.0432
vn 0.0599 -0.9977 0.0328
vn 0.4426 -0.8761 0.1913
vn 0.9013 -0.3451 0.2619
vn 0.7476 -0.4164 0.5174
vn 0.8666 -0.3607 -0.3450
vn 0.9053 0.3241 -0.2747
vn 0.9470 0.2758 0.1650
vn 0.4534 -0.8464 -0.2792
vn 0.6475 0.3177 0.6927
vn 0.6074 0.1659 0.7769
vn 0.5071 0.3944 0.7664
vn 0.6933 0.6667 0.2736
vn 0.8804 0.3135 -0.3559
vn 0.9550 0.2956 -0.0240
vn 0.8718 0.4145 -0.2609
vn 0.7076 0.3043 -0.6377
vn 0.8640 0.2683 -0.4261
vn 0.8856 -0.1179 -0.4493
vn 0.9816 0.0484 -0.1848
vn 0.9366 0.1244 -0.3275
vn 0.9927 0.1199 -0.0118
vn 0.9607 -0.2282 -0.1583
vn 0.9362 -0.2777 0.2154
vn 0.7533 -0.5507 0.3597
vn 0.7115 -0.1252 0.6914
vn 0.4085 -0.1707 0.8967
vn 0.3931 -0.0107 0.9194
vn 0.9145 -0.1938 0.3550
vn 0.9255 0.2806 0.2545
vn 0.9536 -0.1367 -0.2684
vn 0.9612 0.2377 -0.1400
vn 0.4992 0.1193 0.8583
vn -0.0020 0.0024 1.0000
vn 0.4214 0.0672 0.9044
vn -0.0008 -0.0014 1.0000
vn 0.0000 0.0014 -1.0000
vn -0.0000 -0.0002 -1.0000
vn -0.9678 -0.1592 -0.1952
vn -0.9820 0.1021 -0.1588
vn -0.9203 0.3691 -0.1297
vn 0.2105 -0.9439 -0.2544
vn -0.0147 -0.9999 0.0013
vn 0.8362 0.4300 0.3404
# 138 vertex normals

vt -0.3514 1.3752 0.9486
vt -0.3210 1.4629 0.9429
vt -0.2860 1.4091 0.5118
vt -0.2860 1.1148 0.5302
vt -0.3524 1.1148 0.8236
vt -0.2868 0.6861 0.3078
vt -0.3524 0.8142 0.8151
vt -0.2865 0.5199 0.5388
vt -0.3519 0.5194 0.9922
vt -0.3057 0.4660 0.9995
vt 0.2205 -0.3528 0.9654
vt 0.2210 -0.4057 0.0005
vt 0.6814 -0.4067 0.0515
vt 0.6620 -0.3419 0.9654
vt 0.5633 -0.3454 0.5637
vt 0.6070 -0.4103 0.6448
vt 0.6257 -0.3500 0.8153
vt 0.6402 -0.0672 0.6591
vt 0.5628 -0.0643 0.4495
vt 0.5638 0.4867 0.0816
vt 0.6053 0.4921 0.2595
vt 0.5942 0.5806 0.0191
vt 0.5465 0.4896 0.9542
vt 0.5315 0.5834 0.3189
vt 0.2171 0.5834 0.3189
vt 0.2174 0.4963 0.9542
vt 0.1471 1.4642 0.9474
vt 0.1471 1.4091 0.6653
vt 0.1471 1.1151 0.5335
vt 0.1475 0.4652 0.8236
vt 0.1471 0.5140 0.5376
vt 1.0618 0.5831 0.0005
vt 1.4833 0.4982 0.2610
vt 1.5351 0.5806 0.0191
vt 0.8555 1.1404 0.0005
vt 0.8555 1.4641 0.0005
vt 0.3590 1.4595 0.9995
vt 0.3590 1.1407 0.5000
vt 0.6210 1.4629 0.9461
vt 0.5802 1.4091 0.6285
vt 0.5802 1.1148 0.5361
vt 0.5810 0.5199 0.5415
vt 0.6243 0.4660 0.9995
vt -0.1435 1.4641 0.0005
vt -0.1435 1.1407 0.0005
vt 0.6457 1.4091 0.9518
vt 0.6466 1.1148 0.8236
vt 0.6466 0.8142 0.8186
vt 0.5884 0.9289 0.4011
vt 0.6465 0.5194 0.9922
vt 0.3348 0.2479 0.8705
vt 0.3343 0.3033 0.0071
vt 0.7378 0.2836 0.0071
vt 0.7555 0.2468 0.5038
vt 1.5478 -0.4103 0.6448
vt 1.5605 -0.3751 0.5637
vt 1.5307 -0.3602 0.7433
vt 1.4833 -0.0641 0.6568
vt 1.5607 -0.0643 0.4495
vt 1.4918 0.3143 0.4399
vt 1.5607 0.2349 0.2356
vt 1.5597 0.5271 0.0816
vt 0.3317 1.2278 0.0387
vt 0.3314 1.2837 0.9995
vt 0.6186 1.2837 0.9995
vt 0.6323 1.2278 0.0387
vt 0.0781 0.8143 0.5026
vt 0.1039 0.8392 0.5005
vt 0.1264 0.8572 0.5299
vt 0.2138 0.8912 0.5265
vt 0.1043 0.6413 0.2461
vt 0.0754 0.6213 0.3686
vt 0.0716 0.7954 0.4954
vt 0.1138 0.7864 0.2213
vt 0.1307 0.5825 0.2504
vt 0.1034 0.5814 0.5072
vt 0.1568 0.5617 0.5295
vt 0.4541 0.5825 0.2508
vt 0.4519 0.5625 0.5206
vt 0.5002 0.7872 0.4202
vt 0.5100 0.6140 0.5077
vt 0.4559 0.6128 0.2464
vt 0.4458 0.7979 0.2192
vt 0.3945 0.7627 0.0005
vt 0.4541 0.8154 0.2152
vt 0.1440 0.6134 0.0260
vt 0.1602 0.7638 0.0005
vt 0.4085 0.6134 0.0260
vt 0.1386 0.8125 0.2178
vt 0.9143 -0.3939 0.7815
vt 0.8917 -0.3784 0.8241
vt 0.9163 -0.4112 0.6925
vt 0.9803 -0.2147 0.9282
vt 0.9839 -0.1704 0.7288
vt 0.9008 -0.2439 0.8012
vt 0.9441 -0.2395 0.9485
vt 1.4180 -0.1482 0.7563
vt 1.4217 -0.2147 0.9035
vt 1.4707 -0.1910 0.7598
vt 1.4578 -0.2395 0.9038
vt 1.4857 -0.3602 0.8241
vt 1.4578 -0.3673 0.9044
vt 1.4753 -0.3983 0.7721
vt 0.0514 0.0214 0.0000
vt 0.0415 0.0214 0.0000
vt 0.0514 0.0000 0.0000
vt 0.9486 0.0214 0.0000
vt 0.9486 0.0000 0.0000
vt 0.9585 0.0214 0.0000
vt 0.9486 -0.0000 0.0000
vt 0.9803 -0.4150 0.8990
vt 0.9803 -0.3903 0.9995
vt 0.9441 -0.3903 0.9044
vt 1.4217 -0.3903 0.9995
vt 1.4217 -0.2395 0.9995
vt 0.9803 -0.2395 0.9995
vt 1.4217 -0.4150 0.8990
vt 0.9808 -0.4159 0.6666
vt 1.3711 -0.4159 0.6908
vt 0.6178 0.3444 0.3298
vt 0.5954 0.3076 0.2786
vt 0.6028 0.3108 0.5172
vt 0.6439 0.3387 0.5093
vt 0.9841 0.3328 0.3926
vt 0.9320 0.4216 0.3878
vt 0.9344 0.3508 0.5108
vt 0.9874 0.3054 0.5205
vt 0.9997 0.3119 0.4037
vt 0.9608 0.1407 0.5799
vt 0.9998 0.1436 0.5176
vt 1.0154 0.2244 0.4452
vt 0.9370 0.0207 0.5370
vt 0.9344 0.1128 0.5897
vt 0.6298 0.0939 0.5381
vt 0.6114 0.1128 0.5882
vt 0.6033 0.0925 0.4791
vt 0.5850 0.1407 0.5767
vt 0.5881 0.1353 0.3933
vt 0.6114 0.1428 0.6731
vt 0.6355 0.2950 0.6151
vt 0.9285 0.1553 0.6731
vt 0.9197 0.2975 0.6151
vt 0.5832 0.2339 0.2988
vt 0.2087 0.2379 0.9747
vt 0.5823 0.2379 0.9995
vt 0.2081 -0.0603 0.9747
vt 0.6346 -0.0610 0.9747
vt 0.3236 0.9219 0.0005
vt 0.6660 0.9219 0.0005
vt 0.3232 0.6096 0.0005
vt 0.7128 0.6089 0.0005
vt 0.5007 0.5939 0.5295
vt 0.4820 0.8143 0.4196
vt 0.4519 0.8287 0.4207
vt 1.4542 -0.4112 0.6774
vt 0.4674 0.9884 0.0000
vt 0.3399 0.9884 0.0000
vt 0.3399 0.5000 0.0000
vt 0.3399 0.0000 0.0000
vt 0.4674 0.0000 0.0000
vt 0.4674 0.1038 0.0000
vt 0.4591 0.1038 0.0000
vt 0.4579 0.1092 0.0000
vt 0.4579 0.5974 0.0000
vt 0.4591 0.6028 0.0000
vt 0.4674 0.6028 0.0000
vt 1.4522 -0.4155 0.5666
vt 0.9196 -0.4119 0.5666
vt 0.5617 0.2349 0.2311
vt 0.6444 0.3614 0.3773
# 170 texture coords

o ChamferBox01
g ChamferBox01
usemtl OldHouseBaseCorner1
s 1
f 1/1/1 2/2/2 3/3/3 
f 1/1/1 3/3/3 4/4/4 
f 4/4/4 5/5/5 1/1/1 
f 5/5/5 4/4/4 6/6/6 
f 6/6/6 7/7/7 5/5/5 
f 7/7/7 6/6/6 8/8/8 
f 8/8/8 9/9/9 7/7/7 
f 9/9/9 8/8/8 10/10/10 
s 2
f 9/11/11 10/12/12 11/13/13 
f 11/13/13 12/14/14 9/11/11 
f 12/15/14 11/16/13 13/17/15 
f 14/18/16 15/19/17 12/15/14 
f 12/15/14 13/17/15 14/18/16 
f 16/20/18 17/21/19 18/22/20 
f 16/23/18 18/24/20 2/25/21 
f 2/25/21 1/26/22 16/23/18 
s 1
f 2/2/2 19/27/23 20/28/24 
f 20/28/24 3/3/3 2/2/2 
f 3/3/3 20/28/24 21/29/25 
f 21/29/25 4/4/4 3/3/3 
f 22/30/26 10/10/10 8/8/8 
f 8/8/8 23/31/27 22/30/26 
s 2
f 24/32/28 18/22/20 17/21/19 
f 24/32/28 17/21/19 25/33/29 
f 24/32/28 25/33/29 26/34/30 
f 2/35/21 18/36/20 24/37/28 
f 24/37/28 19/38/31 2/35/21 
s 1
f 19/27/23 27/39/32 28/40/33 
f 28/40/33 20/28/24 19/27/23 
f 20/28/24 28/40/33 29/41/34 
f 29/41/34 21/29/25 20/28/24 
f 23/31/27 30/42/35 31/43/36 
f 31/43/36 22/30/26 23/31/27 
s 2
f 24/37/28 26/44/30 27/45/37 
f 27/45/37 19/38/31 24/37/28 
s 1
f 27/39/32 32/46/38 28/40/33 
f 28/40/33 32/46/38 33/47/39 
f 33/47/39 29/41/34 28/40/33 
f 29/41/34 33/47/39 34/48/40 
f 34/48/40 35/49/41 29/41/34 
f 35/49/41 34/48/40 36/50/42 
f 36/50/42 30/42/35 35/49/41 
f 30/42/35 36/50/42 31/43/36 
s 2
f 31/51/43 36/52/44 37/53/45 
f 37/53/45 38/54/46 31/51/43 
f 38/55/46 37/56/45 39/57/47 
f 40/58/48 39/57/47 37/56/45 
f 37/56/45 41/59/49 40/58/48 
f 42/60/50 40/58/48 41/59/49 
f 41/59/49 43/61/51 42/60/50 
f 42/60/50 43/61/51 44/62/52 
f 44/62/52 25/33/29 42/60/50 
f 25/33/29 44/62/52 26/34/30 
f 32/63/53 27/64/37 26/65/30 
f 26/65/30 44/66/52 32/63/53 
s 1
f 45/67/54 6/6/6 4/4/4 
f 46/68/55 45/67/54 4/4/4 
f 47/69/56 46/68/55 4/4/4 
f 47/69/56 4/4/4 21/29/25 
f 47/69/56 21/29/25 48/70/57 
f 49/71/58 50/72/59 51/73/60 
f 51/73/60 52/74/61 49/71/58 
f 53/75/62 54/76/63 50/72/59 
f 50/72/59 49/71/58 53/75/62 
f 55/77/64 54/76/63 53/75/62 
f 55/77/64 53/75/62 56/78/65 
f 55/77/64 56/78/65 57/79/66 
f 58/80/67 59/81/68 60/82/69 
f 60/82/69 61/83/70 58/80/67 
f 62/84/71 63/85/72 61/83/70 
f 64/86/73 65/87/74 62/84/71 
f 62/84/71 66/88/75 64/86/73 
f 62/84/71 65/87/74 67/89/76 
f 67/89/76 63/85/72 62/84/71 
f 66/88/75 62/84/71 61/83/70 
f 61/83/70 60/82/69 66/88/75 
f 66/88/75 60/82/69 56/78/65 
f 64/86/73 66/88/75 56/78/65 
f 56/78/65 53/75/62 64/86/73 
f 64/86/73 53/75/62 49/71/58 
f 52/74/61 65/87/74 64/86/73 
f 64/86/73 49/71/58 52/74/61 
f 65/87/74 52/74/61 67/89/76 
s 2
f 68/90/77 69/91/78 13/17/15 
f 68/90/77 13/17/15 11/16/13 
f 68/90/77 11/16/13 70/92/79 
f 71/93/80 72/94/81 73/95/82 
f 73/95/82 74/96/83 71/93/80 
f 75/97/84 72/94/81 71/93/80 
f 71/93/80 76/98/85 75/97/84 
f 77/99/86 75/97/84 76/98/85 
f 76/98/85 78/100/87 77/99/86 
f 79/101/88 77/99/86 78/100/87 
f 79/101/88 78/100/87 80/102/89 
f 79/101/88 80/102/89 81/103/90 
f 82/104/91 83/105/92 84/106/93 
f 85/107/94 82/104/91 84/106/93 
f 84/106/93 86/108/95 85/107/94 
f 87/109/96 85/107/94 86/110/95 
f 88/111/97 89/112/98 90/113/99 
f 89/112/98 91/114/100 92/115/101 
f 92/115/101 93/116/102 89/112/98 
f 91/114/100 89/112/98 88/111/97 
f 88/111/97 94/117/103 91/114/100 
f 88/111/97 86/118/95 84/119/93 
f 84/119/93 94/117/103 88/111/97 
f 80/102/89 91/114/100 94/117/103 
f 78/100/87 92/115/101 91/114/100 
f 91/114/100 80/102/89 78/100/87 
f 76/98/85 92/115/101 78/100/87 
f 93/116/102 92/115/101 76/98/85 
f 76/98/85 71/93/80 93/116/102 
f 74/96/83 93/116/102 71/93/80 
f 89/112/98 93/116/102 74/96/83 
f 74/96/83 90/113/99 89/112/98 
f 95/120/104 96/121/105 97/122/106 
f 97/122/106 98/123/107 95/120/104 
f 99/124/108 100/125/109 101/126/110 
f 99/124/108 101/126/110 102/127/111 
f 99/124/108 102/127/111 103/128/112 
f 102/127/111 104/129/113 105/130/114 
f 102/127/111 105/130/114 106/131/115 
f 102/127/111 106/131/115 103/128/112 
f 107/132/116 105/130/114 104/129/113 
f 104/129/113 108/133/117 107/132/116 
f 109/134/118 107/132/116 108/133/117 
f 109/134/118 108/133/117 110/135/119 
f 109/134/118 110/135/119 111/136/120 
f 112/137/121 113/138/122 111/136/120 
f 111/136/120 110/135/119 112/137/121 
f 110/135/119 114/139/123 112/137/121 
f 114/139/123 115/140/124 97/122/106 
f 97/122/106 112/137/121 114/139/123 
f 114/139/123 116/141/125 117/142/126 
f 117/142/126 115/140/124 114/139/123 
f 116/141/125 104/129/113 102/127/111 
f 102/127/111 117/142/126 116/141/125 
f 108/133/117 116/141/125 114/139/123 
f 114/139/123 110/135/119 108/133/117 
f 104/129/113 116/141/125 108/133/117 
f 101/126/110 117/142/126 102/127/111 
f 98/123/107 115/140/124 117/142/126 
f 117/142/126 101/126/110 98/123/107 
f 97/122/106 115/140/124 98/123/107 
f 118/143/127 113/138/122 112/137/121 
f 118/143/127 112/137/121 97/122/106 
f 118/143/127 97/122/106 96/121/105 
f 16/23/18 1/26/22 5/144/128 
f 119/145/129 16/23/18 5/144/128 
f 119/145/129 5/144/128 7/146/130 
f 15/147/17 119/145/129 7/146/130 
f 15/147/17 7/146/130 9/11/11 
f 15/147/17 9/11/11 12/14/14 
f 33/148/131 32/63/53 44/66/52 
f 33/148/131 44/66/52 43/149/51 
f 34/150/132 33/148/131 43/149/51 
f 34/150/132 43/149/51 41/151/49 
f 36/52/44 34/150/132 41/151/49 
f 36/52/44 41/151/49 37/53/45 
s 1
f 23/31/27 55/77/64 57/79/66 
f 30/42/35 23/31/27 57/79/66 
f 30/42/35 57/79/66 120/152/133 
f 30/42/35 120/152/133 59/81/68 
f 30/42/35 59/81/68 58/80/67 
f 35/49/41 30/42/35 58/80/67 
f 35/49/41 58/80/67 121/153/134 
f 23/31/27 8/8/8 6/6/6 
f 6/6/6 45/67/54 51/73/60 
f 6/6/6 51/73/60 50/72/59 
f 6/6/6 50/72/59 54/76/63 
f 23/31/27 6/6/6 54/76/63 
f 23/31/27 54/76/63 55/77/64 
f 21/29/25 29/41/34 35/49/41 
f 35/49/41 121/153/134 122/154/135 
f 21/29/25 35/49/41 122/154/135 
f 21/29/25 122/154/135 48/70/57 
f 67/89/76 52/74/61 51/73/60 
f 67/89/76 51/73/60 45/67/54 
f 67/89/76 45/67/54 46/68/55 
f 120/152/133 57/79/66 56/78/65 
f 59/81/68 120/152/133 56/78/65 
f 59/81/68 56/78/65 60/82/69 
f 63/85/72 122/154/135 121/153/134 
f 61/83/70 63/85/72 121/153/134 
f 61/83/70 121/153/134 58/80/67 
f 48/70/57 122/154/135 63/85/72 
f 47/69/56 48/70/57 63/85/72 
f 46/68/55 47/69/56 63/85/72 
f 46/68/55 63/85/72 67/89/76 
s 2
f 39/57/47 79/101/88 81/103/90 
f 38/55/46 39/57/47 81/103/90 
f 38/55/46 81/103/90 123/155/136 
f 11/156/13 10/157/12 22/158/137 
f 22/158/137 31/159/43 38/160/46 
f 38/160/46 123/161/136 83/162/92 
f 22/158/137 38/160/46 83/162/92 
f 22/158/137 83/162/92 82/163/91 
f 22/158/137 82/163/91 85/164/94 
f 11/156/13 22/158/137 85/164/94 
f 11/156/13 85/164/94 87/165/96 
f 11/156/13 87/165/96 70/166/79 
f 13/17/15 69/91/78 73/95/82 
f 13/17/15 73/95/82 72/94/81 
f 14/18/16 13/17/15 72/94/81 
f 14/18/16 72/94/81 75/97/84 
f 40/58/48 14/18/16 75/97/84 
f 40/58/48 75/97/84 77/99/86 
f 39/57/47 40/58/48 77/99/86 
f 39/57/47 77/99/86 79/101/88 
f 74/96/83 73/95/82 69/91/78 
f 90/113/99 74/96/83 69/91/78 
f 90/113/99 69/91/78 68/90/77 
f 81/103/90 80/102/89 94/117/103 
f 123/155/136 81/103/90 94/117/103 
f 83/167/92 123/155/136 94/117/103 
f 83/167/92 94/117/103 84/119/93 
f 88/111/97 90/113/99 68/90/77 
f 88/111/97 68/90/77 70/92/79 
f 86/118/95 88/111/97 70/92/79 
f 86/118/95 70/92/79 87/168/96 
f 42/60/50 106/131/115 105/130/114 
f 40/58/48 42/60/50 105/130/114 
f 40/58/48 105/130/114 107/132/116 
f 14/18/16 40/58/48 107/132/116 
f 14/18/16 107/132/116 109/134/118 
f 15/19/17 14/18/16 109/134/118 
f 15/19/17 109/134/118 111/136/120 
f 15/19/17 111/136/120 113/138/122 
f 15/19/17 113/138/122 118/143/127 
f 15/19/17 118/143/127 119/169/129 
f 95/120/104 124/170/138 17/21/19 
f 96/121/105 95/120/104 17/21/19 
f 17/21/19 16/20/18 119/169/129 
f 96/121/105 17/21/19 119/169/129 
f 96/121/105 119/169/129 118/143/127 
f 103/128/112 106/131/115 42/60/50 
f 99/124/108 103/128/112 42/60/50 
f 100/125/109 99/124/108 42/60/50 
f 100/125/109 42/60/50 25/33/29 
f 100/125/109 25/33/29 17/21/19 
f 100/125/109 17/21/19 124/170/138 
f 101/126/110 100/125/109 124/170/138 
f 98/123/107 101/126/110 124/170/138 
f 98/123/107 124/170/138 95/120/104 
# 244 faces

