# 3ds Max Wavefront OBJ Exporter v0.99 - (c)2007 guruware
# File Created: 12.05.2025 22:26:17

mtllib OldHouseWhiteAgedWallSmallDoor.mtl

#
# object Box02
#

v  0.2830 3.5050 -2.0914
v  0.2830 0.0050 -2.0914
v  -0.0103 0.0050 -2.0914
v  -0.0103 3.5050 -2.0914
v  0.2830 0.0050 -1.5682
v  -0.0103 0.0050 -1.5682
v  0.2830 2.3456 -1.5682
v  -0.0103 2.3456 -1.5682
v  0.2830 2.3456 -0.4682
v  -0.0103 2.3456 -0.4682
v  0.2830 0.0050 -0.4682
v  -0.0103 0.0050 -0.4682
v  -0.0103 3.5050 0.0442
v  0.2830 3.5050 0.0442
v  -0.0103 0.0050 0.0442
v  0.2830 0.0050 0.0442
# 16 vertices

vn 0.0000 0.0000 -1.0000
vn 0.0000 -1.0000 -0.0000
vn 0.0000 0.0000 1.0000
vn 0.0000 -1.0000 0.0000
vn 0.0000 -0.0000 -1.0000
vn 0.0000 1.0000 0.0000
vn 0.0000 -0.0000 1.0000
vn -1.0000 0.0000 -0.0000
vn 1.0000 0.0000 -0.0000
# 9 vertex normals

vt 0.4219 0.8939 0.9793
vt 0.4219 -0.0158 0.9793
vt 0.4905 -0.0158 0.9793
vt 0.4905 0.8939 0.9793
vt 0.4219 0.8628 0.1139
vt 0.4905 0.8628 0.1139
vt 0.4905 1.0037 0.1139
vt 0.4219 1.0037 0.1139
vt 0.8026 0.1246 0.0000
vt 0.8026 0.2915 0.0000
vt 0.0730 0.2915 0.0000
vt 0.0730 0.1246 0.0000
vt 0.8212 0.2915 0.0000
vt 0.8212 0.1246 0.0000
vt 0.0915 0.2915 0.0000
vt 0.0915 0.1246 0.0000
vt 0.4219 1.0037 0.8861
vt 0.4219 0.4285 0.8861
vt 0.4905 0.4285 0.8861
vt 0.4905 1.0037 0.8861
vt 0.4905 0.4285 0.1139
vt 0.4905 0.5665 0.1139
vt 0.4219 0.5665 0.1139
vt 0.4219 0.4285 0.1139
vt 0.5886 -0.1018 0.0000
vt 0.4975 -0.1018 0.0000
vt 0.4975 0.9687 0.0000
vt 0.5886 0.9687 0.0000
vt 0.5108 -0.5505 0.4624
vt 0.0774 -0.5505 0.4624
vt 0.0774 -0.6692 0.4624
vt 0.7256 -0.6692 0.4624
vt 0.5108 -0.2957 0.4624
vt 0.7256 -0.1745 0.4624
vt 0.0774 -0.1745 0.4624
vt 0.0774 -0.2957 0.4624
vt -0.0127 0.4126 0.5376
vt -0.0127 0.5272 0.5376
vt -0.4839 0.5272 0.5376
vt -0.7172 0.4126 0.5376
vt -0.4839 0.7731 0.5376
vt -0.7172 0.8900 0.5376
vt -0.0127 0.8900 0.5376
vt -0.0127 0.7731 0.5376
# 44 texture coords

o Box02
g Box02
usemtl WallWhiteAged
s 4
f 1/1/1 2/2/1 3/3/1 
f 3/3/1 4/4/1 1/1/1 
s 8
f 5/5/2 6/6/2 3/7/2 
f 3/7/2 2/8/2 5/5/2 
s 1
f 6/9/3 5/10/3 7/11/3 
f 7/11/3 8/12/3 6/9/3 
s 2
f 7/13/4 9/11/4 10/12/4 
f 10/12/4 8/14/4 7/13/4 
s 1
f 10/14/5 9/13/5 11/15/5 
f 11/15/5 12/16/5 10/14/5 
s 32
f 4/17/6 13/18/6 14/19/6 
f 14/19/6 1/20/6 4/17/6 
s 8
f 15/21/2 12/22/2 11/23/2 
f 11/23/2 16/24/2 15/21/2 
s 2
f 15/25/7 16/26/7 14/27/7 
f 14/27/7 13/28/7 15/25/7 
s 64
f 10/29/8 12/30/8 15/31/8 
f 10/29/8 15/31/8 13/32/8 
f 8/33/8 10/29/8 13/32/8 
f 8/33/8 13/32/8 4/34/8 
f 8/33/8 4/34/8 3/35/8 
f 8/33/8 3/35/8 6/36/8 
s 16
f 16/37/9 11/38/9 9/39/9 
f 14/40/9 16/37/9 9/39/9 
f 14/40/9 9/39/9 7/41/9 
f 1/42/9 14/40/9 7/41/9 
f 2/43/9 1/42/9 7/41/9 
f 2/43/9 7/41/9 5/44/9 
# 28 faces

