# 3ds Max Wavefront OBJ Exporter v0.99 - (c)2007 guruware
# File Created: 12.05.2025 22:15:29

mtllib OldHouseBaseSegment2.mtl

#
# object ChamferBox02
#

v  -0.0269 2.6550 1.3266
v  -0.0131 2.7759 1.2445
v  -0.0684 2.6550 1.2445
v  -0.0684 0.0242 1.2445
v  -0.0269 0.0242 1.3266
v  -0.0407 -0.0124 1.2445
v  1.1480 1.7932 1.2179
v  1.0627 1.7932 1.3266
v  1.1253 0.9314 1.3266
v  1.2373 0.9314 1.2084
v  -0.0131 2.7759 -1.2314
v  -0.0684 2.6550 -1.2314
v  -0.0684 0.0242 -1.2314
v  -0.0407 -0.0124 -1.2314
v  1.3336 -0.0124 -1.2314
v  1.2761 -0.0124 1.1957
v  0.8558 2.7759 -1.2314
v  0.8201 2.7759 1.1935
v  -0.0269 2.6550 -1.3135
v  -0.0269 0.0242 -1.3135
v  1.2996 0.0311 -1.3135
v  1.3816 0.0311 -1.2314
v  1.2074 0.9314 -1.2314
v  1.1253 0.9314 -1.3135
v  1.1447 1.7932 -1.1976
v  1.0627 1.7932 -1.3135
v  0.8835 2.6550 -1.3135
v  0.9519 2.6550 -1.2314
v  0.9599 1.2728 -0.6783
v  0.9599 1.2321 0.0015
v  0.9599 0.9803 -0.0606
v  0.9599 1.0000 -0.6924
v  1.2401 1.5824 -0.7030
v  1.2401 1.3940 -0.7297
v  1.1778 1.3388 -0.8290
v  1.1541 1.6643 -0.8290
v  1.2401 1.6045 0.1361
v  1.1541 1.6643 0.2031
v  0.9014 2.6550 1.3070
v  0.8763 2.6866 1.3178
v  0.8835 2.6550 1.3434
v  0.8843 2.7436 1.2410
v  0.9210 2.7436 1.1026
v  0.8381 2.7018 1.3291
v  0.8381 2.7436 1.3051
v  0.8022 2.7436 1.2664
v  0.9974 2.6382 0.4378
v  0.9974 2.5294 0.4316
v  0.9863 2.5012 0.3077
v  0.9519 2.6550 0.3077
v  0.8814 2.7743 0.3077
v  0.9974 2.6440 1.2243
v  0.9974 2.5604 1.2238
v  1.3473 0.0000 1.2445
v  1.3264 0.0000 1.3235
v  1.2169 0.5990 1.3266
v  1.2990 0.5945 1.2445
v  1.3552 0.4105 0.9825
v  1.2990 0.5379 0.9348
v  1.2990 0.6172 1.1640
v  1.4224 0.4583 1.1640
v  1.3816 0.0311 0.8693
v  1.4224 0.0000 0.9348
v  1.3473 0.0000 0.8693
v  1.3647 0.0000 1.3932
v  1.3505 0.4066 1.3391
v  1.1914 0.4145 1.3932
v  1.0837 0.0000 1.3932
v  1.0045 0.9032 -0.1349
v  1.0045 0.9869 -0.2033
v  1.0045 0.9869 -0.7535
v  1.0045 0.9032 -0.7535
v  1.2955 0.6188 -1.0227
v  1.2838 0.5367 -1.1185
v  1.2295 0.9314 -1.1368
v  1.2955 0.9047 -1.0194
v  1.2034 0.9869 -1.0841
v  1.2955 0.6164 -0.2662
v  1.2838 0.5367 -0.1349
v  1.2836 0.9312 -0.1835
v  1.1671 1.4853 0.2834
v  1.2401 1.4853 0.2155
v  1.1898 1.1736 0.7428
v  1.2167 1.2291 0.7039
v  1.1970 1.4259 0.6843
v  1.1671 1.4853 0.7428
v  1.2484 1.2431 0.0797
v  1.2464 1.4106 0.0367
v  1.0599 1.1736 0.0015
v  1.0599 1.3388 0.0015
v  1.0599 1.3388 -0.0399
v  1.1869 1.1736 -0.0399
v  0.9863 2.4568 1.2146
v  0.9988 2.4700 1.2578
v  0.9944 2.5012 1.2608
v  1.0394 0.0000 1.2702
v  0.9645 0.0300 1.3266
v  1.0224 0.4357 1.3460
v  1.2062 0.8397 0.0114
v  1.2407 0.8014 -0.0710
v  1.1778 1.3388 -0.7535
v  1.2034 0.9869 -0.7840
v  1.2010 0.9314 0.0287
v  1.1898 1.1002 0.0366
v  1.2401 1.4597 -0.0399
v  1.2401 1.3614 -0.0399
# 106 vertices

vn -0.8814 0.1583 0.4451
vn -0.9021 0.4127 0.1263
vn -0.9540 0.2024 0.2211
vn -0.9299 -0.2993 0.2138
vn -0.8838 -0.1407 0.4463
vn -0.7861 -0.5928 0.1753
vn 0.9352 0.1486 0.3213
vn 0.7880 0.1250 0.6029
vn 0.7234 0.1264 0.6787
vn 0.9256 0.1554 0.3451
vn -0.9021 0.4127 -0.1263
vn -0.9540 0.2024 -0.2211
vn -0.9299 -0.2993 -0.2138
vn -0.7861 -0.5928 -0.1753
vn 0.0022 -0.9800 -0.1988
vn 0.2638 -0.9539 -0.1430
vn 0.0679 -0.9969 0.0393
vn 0.0075 -0.9795 0.2014
vn 0.0000 1.0000 0.0000
vn -0.8814 0.1583 -0.4451
vn -0.8838 -0.1407 -0.4463
vn 0.0048 -0.9136 -0.4066
vn 0.0002 -0.8846 -0.4664
vn 0.5574 -0.6154 -0.5574
vn 0.7029 0.1087 -0.7029
vn 0.7006 0.1356 -0.7006
vn 0.7096 0.1046 -0.6968
vn 0.8050 0.1104 -0.5829
vn 0.8106 0.1161 -0.5740
vn 0.7287 0.3287 -0.6007
vn 0.7328 0.3017 -0.6100
vn 0.6558 0.5214 -0.5459
vn 0.0000 0.2848 -0.9586
vn 0.0000 0.5618 -0.8273
vn 0.0000 0.2572 -0.9664
vn 1.0000 0.0000 -0.0000
vn 0.9540 0.0359 -0.2978
vn 0.9367 0.0493 -0.3467
vn 0.8328 0.0710 -0.5490
vn 0.8425 0.0613 -0.5351
vn 0.5796 0.8149 -0.0011
vn 0.7041 0.7099 -0.0187
vn 0.6864 0.7270 -0.0161
vn 0.5714 0.8207 -0.0000
vn 0.7469 0.3421 0.5702
vn 0.7590 0.5558 0.3391
vn 0.8530 0.3127 0.4178
vn 0.3850 0.9173 0.1020
vn -0.6829 0.3639 0.6335
vn 0.9383 0.3344 -0.0877
vn 0.9894 -0.1408 -0.0341
vn 0.9828 0.1786 -0.0468
vn 0.9170 0.3758 -0.1340
vn 0.4865 0.8732 -0.0272
vn 0.8744 0.3534 0.3324
vn 0.9991 0.0082 0.0413
vn 0.0712 -0.9974 0.0117
vn 0.0117 -0.9997 0.0208
vn 0.4994 0.3374 0.7980
vn 0.8075 0.4036 0.4302
vn 0.8796 0.2745 -0.3886
vn 0.9717 0.2175 -0.0917
vn 0.9381 0.3456 -0.0243
vn 0.9362 0.3513 0.0097
vn 0.9106 -0.0728 -0.4068
vn 0.9559 -0.0147 -0.2933
vn 0.5317 -0.5876 -0.6099
vn 0.0808 0.0338 0.9962
vn 0.3244 0.1356 0.9361
vn -0.0256 0.0596 0.9979
vn -0.3180 -0.1724 0.9323
vn 0.7669 0.2712 0.5816
vn 0.9805 -0.0261 0.1948
vn -1.0000 0.0000 -0.0000
vn 0.9948 -0.0168 -0.1009
vn 0.9917 0.0088 -0.1285
vn 0.8632 0.3429 -0.3706
vn 0.9568 0.1031 -0.2717
vn 0.7410 0.6117 -0.2772
vn 0.9973 -0.0739 0.0043
vn 0.9895 -0.1449 0.0000
vn 0.9993 0.0342 0.0131
vn 0.6611 0.3885 0.6418
vn 0.6120 0.4386 0.6581
vn 0.6858 0.3611 0.6319
vn 0.7124 0.3296 0.6196
vn 0.9324 -0.2133 0.2919
vn 0.9386 -0.0715 0.3376
vn 0.9548 0.2360 0.1805
vn 0.9404 0.2735 0.2020
vn 0.9810 -0.1939 -0.0023
vn 0.9977 0.0626 0.0275
vn -0.4387 -0.2184 -0.8717
vn -0.9184 -0.0962 -0.3839
vn -0.3014 -0.2317 -0.9249
vn 0.0000 0.0000 -1.0000
vn 0.9765 -0.1984 -0.0838
vn 0.9974 0.0357 0.0624
vn 0.8246 0.1290 0.5508
vn -0.0161 0.8812 0.4724
vn 0.1320 0.8942 0.4278
vn 0.0296 0.8955 0.4441
vn 0.0508 0.5571 0.8289
vn 0.0357 0.5930 0.8044
vn 0.0492 0.5181 0.8539
vn 0.1975 0.4575 0.8670
vn 0.4393 0.6244 0.6459
vn 0.9027 0.4302 -0.0061
vn 0.9893 0.1458 -0.0003
vn 0.7732 0.6340 -0.0122
vn 0.3034 0.9527 0.0193
vn 0.6129 0.7894 0.0329
vn 0.3950 0.8229 0.4085
vn 0.4136 0.4535 0.7895
vn 0.5687 0.7620 0.3097
vn 0.6713 -0.7412 -0.0000
vn 0.3089 -0.9511 0.0025
vn 0.0138 -0.9164 0.4001
vn -0.0108 -0.9906 0.1365
vn 0.0051 -0.8798 0.4753
vn -0.1074 -0.0122 0.9941
vn 0.0808 0.0222 0.9965
vn 0.0429 0.0241 0.9988
vn -0.0043 -0.0054 1.0000
vn -0.0185 -0.0234 0.9996
vn -0.0084 -0.0090 0.9999
vn -0.2946 -0.2566 0.9205
vn 0.0000 -0.0000 1.0000
vn -0.2093 0.3575 0.9102
vn 0.0473 0.3333 0.9416
vn 0.0000 -1.0000 -0.0000
vn -0.2987 -0.9483 0.1075
vn 0.7431 0.6424 -0.1873
vn 0.9081 0.4187 -0.0000
vn 0.9055 0.4244 0.0012
vn 0.7253 0.6468 -0.2357
vn 0.4615 0.8454 -0.2689
vn 0.4362 0.8719 -0.2225
vn 0.8056 -0.0217 0.5921
vn 0.8080 -0.0000 0.5892
vn 0.6239 -0.0545 0.7796
vn 0.4368 -0.1646 0.8843
vn 0.2883 -0.1420 0.9470
vn 0.1509 -0.0743 0.9858
vn 0.9824 0.1868 -0.0053
vn 0.9775 0.1743 -0.1192
vn 0.9005 0.3807 -0.2100
vn 0.9819 0.1890 -0.0141
vn 0.2964 0.9549 0.0177
vn 0.9309 0.0647 0.3596
vn 0.9883 0.1500 0.0263
vn 0.9956 0.0856 -0.0383
vn 0.4676 0.8839 -0.0016
vn -0.0000 1.0000 -0.0000
vn 0.1533 0.9868 0.0525
vn 0.2508 0.9664 0.0562
vn 0.6612 0.7502 -0.0034
vn 0.6660 0.7459 -0.0000
vn 0.9812 0.0241 0.1916
vn 0.9953 0.0123 0.0959
vn 0.5165 0.4870 0.7043
vn 0.6897 0.3291 0.6450
vn 0.0673 0.6344 0.7701
vn 0.0630 0.6311 0.7732
vn 0.4593 0.0360 -0.8876
vn 0.2938 0.0641 -0.9537
vn 0.3600 0.1491 -0.9210
vn 0.3749 0.1920 -0.9070
vn 0.3103 0.1297 -0.9417
vn 0.0556 0.1554 -0.9863
vn -0.2475 0.2321 -0.9407
vn 0.9974 0.0725 0.0000
vn 0.9974 0.0725 -0.0000
vn 0.9899 0.1396 -0.0255
vn 0.9976 0.0699 -0.0008
vn 0.9985 0.0539 -0.0002
vn 0.9978 0.0665 -0.0069
vn 0.9936 0.1042 -0.0443
vn 0.9967 0.0786 -0.0189
vn 0.5423 -0.8402 -0.0052
vn 0.7295 -0.6840 0.0000
vn 0.7224 -0.6906 -0.0339
vn 0.3579 -0.9329 0.0403
vn 0.5580 -0.8298 0.0042
vn 0.1667 -0.9859 0.0167
vn 0.6686 -0.7432 -0.0264
vn 0.6632 -0.7484 0.0000
vn 0.7280 -0.5743 -0.3745
vn -0.2187 -0.7083 -0.6712
vn 0.4269 -0.6445 -0.6343
vn 0.9938 0.1102 -0.0110
vn 0.9820 0.1605 0.0993
vn 0.1844 0.9741 0.1306
vn 0.5774 -0.1635 -0.7999
vn 0.8846 -0.0651 -0.4617
vn 0.9495 -0.1875 -0.2514
vn 0.9968 -0.0041 -0.0793
vn 0.9966 0.0000 -0.0818
# 198 vertex normals

vt -1.4080 1.0630 0.7494
vt -1.3769 1.1173 0.9995
vt -1.3769 1.0630 0.0005
vt -1.3769 -0.1186 0.0005
vt -1.4080 -0.1186 0.7493
vt -1.3769 -0.1351 0.4992
vt -0.9090 0.6722 0.5522
vt -0.9393 0.6722 0.4200
vt -0.9393 0.2942 0.5210
vt -0.9090 0.2942 0.6532
vt -0.4400 1.1173 0.9995
vt -0.4400 1.0630 0.0005
vt -0.4400 -0.1186 0.0005
vt -0.4400 -0.1351 0.4992
vt 0.3301 0.0000 0.0000
vt 0.4808 0.0000 0.0000
vt 0.4808 1.0000 0.0000
vt 0.3301 1.0000 0.0000
vt 0.1063 0.1430 4.5000
vt 0.1063 0.3566 3.5000
vt 0.8458 0.3566 3.5000
vt 0.8306 0.1517 4.5000
vt -0.4090 1.0630 0.7494
vt -0.4090 -0.1186 0.7494
vt -0.4201 -0.1483 0.9995
vt -0.4142 -0.1313 0.0005
vt 0.1513 -0.1280 0.0005
vt 0.1658 -0.1483 0.9995
vt 0.0048 -0.1198 0.8564
vt 0.0351 -0.1007 0.8016
vt 0.0048 -0.1007 0.9338
vt 0.0048 0.2942 0.6532
vt 0.0351 0.2942 0.5210
vt -0.0076 0.6722 0.5522
vt 0.0351 0.6722 0.4200
vt 0.0351 1.0501 0.1315
vt 0.0048 1.0501 0.2416
vt 0.0048 1.1031 0.0868
vt -0.4142 1.0921 0.0005
vt -0.4083 1.1483 0.9995
vt -0.0379 1.1483 0.9995
vt -0.0260 1.0921 0.0005
vt 0.6582 0.1635 1.0000
vt 0.9908 0.1387 1.0000
vt 0.9604 -0.0144 1.5000
vt 0.6513 -0.0025 2.0000
vt -0.1902 0.5797 0.7058
vt -0.1803 0.4970 0.7058
vt -0.1437 0.4728 0.6055
vt -0.1437 0.6156 0.5673
vt -0.4999 0.5894 0.7058
vt -0.5246 0.6156 0.5673
vt 0.9582 0.9701 0.0000
vt 0.9434 0.9780 0.0000
vt 0.9434 0.9701 0.0000
vt -0.9077 1.0890 0.1328
vt -0.8566 1.0890 0.1919
vt -0.8902 1.1031 0.0294
vt 1.0000 0.7649 0.0000
vt 1.0000 1.0000 0.0000
vt 0.9612 1.0000 0.0000
vt -0.6113 1.0428 0.3149
vt -0.6090 0.9950 0.3149
vt -0.5632 0.9827 0.2970
vt -0.5632 1.0501 0.2416
vt -0.5632 1.1025 0.1281
vt -0.9015 1.0453 0.3149
vt -0.9014 1.0086 0.3149
vt 0.9595 0.0085 0.0000
vt 0.9434 0.0085 0.0000
vt 0.9434 0.0000 0.0000
vt -0.9393 0.1483 0.6684
vt -0.9090 0.1464 0.8006
vt -0.8123 0.0657 0.8911
vt -0.7947 0.1215 0.8006
vt -0.8793 0.1563 0.8006
vt -0.8793 0.0867 0.9995
vt -0.7705 -0.1007 0.9338
vt -0.7947 -0.1144 0.9995
vt -0.7705 -0.1144 0.8785
vt -0.9639 -0.1144 0.9065
vt -0.9439 0.0640 0.8837
vt -0.9639 0.0674 0.6273
vt -0.9639 -0.1144 0.4538
vt 1.0000 0.8141 0.0000
vt 0.3711 1.0000 0.0000
vt 0.3711 0.8141 0.0000
vt -0.0722 0.1570 0.7950
vt -0.0368 0.1210 0.7762
vt -0.0301 0.2942 0.6887
vt -0.0734 0.2824 0.7950
vt -0.0495 0.3185 0.6467
vt -0.3514 0.1560 0.7950
vt -0.3999 0.1210 0.7762
vt -0.3819 0.2941 0.7950
vt -0.5543 0.5371 0.5883
vt -0.5292 0.5371 0.7058
vt -0.7238 0.4004 0.6248
vt -0.7095 0.4247 0.6800
vt -0.7105 0.5283 0.6371
vt -0.7238 0.5371 0.5883
vt -0.4791 0.4308 0.7536
vt -0.4632 0.5225 0.7726
vt 0.4544 0.5093 0.4861
vt 0.4544 0.5735 0.4861
vt 0.4544 0.5735 0.4151
vt 0.5496 0.5093 0.4151
vt 0.0503 0.6914 0.0005
vt 0.0770 0.2906 0.0005
vt -0.8980 0.9632 0.2970
vt -0.9139 0.9690 0.3173
vt -0.9272 0.9827 0.3091
vt -0.9320 1.0501 0.1603
vt -0.9455 1.0501 0.1315
vt 0.9957 1.0907 0.0000
vt 1.0055 1.0907 0.0000
vt 1.0012 1.1005 0.0000
vt 0.6626 1.1005 0.0000
vt 0.6626 1.0638 0.0000
vt 0.9982 1.0734 0.0000
vt 1.0174 1.0638 0.0000
vt 1.0131 1.0734 0.0000
vt -0.9314 1.0890 0.0583
vt -0.9402 1.0707 0.0583
vt -0.9361 1.0640 0.1198
vt -0.9171 1.0890 0.0005
vt -0.8910 -0.1198 0.7637
vt -0.9090 -0.1144 0.8785
vt 0.6626 -0.0933 0.0000
vt 0.6626 -0.1300 0.0000
vt 1.0174 -0.1300 0.0000
vt 1.0174 -0.1195 0.0000
vt 0.9534 -0.1185 0.0000
vt 0.9596 -0.0933 0.0000
vt 0.9926 0.0807 0.0000
vt 1.0360 0.0807 0.0000
vt 1.0174 0.2924 0.0000
vt 1.0174 0.6781 0.0000
vt 0.9794 1.0638 0.0000
vt 0.6830 1.0638 0.0000
vt 0.9825 -0.1110 0.0000
vt 0.6208 -0.1136 0.0000
vt -0.9464 0.0767 0.3552
vt 0.0000 0.0000 0.0000
vt 1.0000 0.0000 0.0000
vt 1.0000 0.2682 0.0000
vt 0.2909 0.2733 0.0000
vt 0.2218 0.3244 0.0000
vt 0.0000 1.0000 0.0000
vt 0.2218 1.0000 0.0000
vt 0.8547 1.0000 0.0000
vt 0.8547 0.0654 0.0000
vt 1.0000 -0.0000 0.0000
vt 0.7318 -0.0000 0.0000
vt 0.2937 0.1944 1.0084
vt 0.5198 0.1944 1.0084
vt 0.4974 0.1741 0.5964
vt 0.2665 0.1756 0.6919
vt 0.2402 0.2572 1.0546
vt 0.2703 0.2701 1.1958
vt 0.3811 0.4554 1.8546
vt 0.4075 0.4234 1.2764
vt 0.4075 0.4510 1.2764
vt 0.3811 0.5455 1.9877
vt 0.5099 0.5673 1.2764
vt 0.5251 0.4510 0.9887
vt -0.4234 0.2371 0.7068
vt -0.4370 0.2818 0.6620
vt -0.4602 0.2942 0.6532
vt 0.5309 0.2451 0.3428
vt 0.5198 0.1879 0.6016
vt 0.3186 0.1879 0.6016
vt 0.3114 0.2724 0.5092
vt 0.6170 0.2779 0.6224
vt 0.6406 0.2451 0.3428
vt -0.3186 0.2963 0.7950
vt -0.3672 0.3709 0.3264
vt -0.4204 0.2837 0.3264
vt 0.5517 0.4808 0.5464
vt 0.5601 0.4152 0.5328
vt 0.5640 0.3795 0.5031
vt 0.3795 0.4342 0.3795
vt 0.3795 0.5321 0.4861
vt -0.1715 0.4728 0.6055
vt -0.1603 0.3185 0.6467
vt -0.4632 0.3682 0.6248
vt -0.4349 0.5258 0.7058
vt -0.4349 0.4827 0.7058
vt 0.2657 0.4932 0.3413
vt 0.2531 0.4932 0.3413
vt 0.2531 0.4594 0.9995
vt 0.4596 0.4594 0.7484
vt 0.4824 0.5330 0.3413
vt 0.2657 0.5540 0.2017
vt 0.4752 0.5540 0.0005
vt 0.5054 0.5330 0.3413
vt -0.4502 0.4004 0.4156
vt -0.4349 0.4004 0.6202
vt 0.5894 0.5823 0.4151
vt 0.6117 0.5363 0.6205
vt 0.6205 0.6176 0.5467
vt 0.5894 0.6205 0.4151
# 202 texture coords

o ChamferBox02
g ChamferBox02
usemtl OldHouseBaseCorner1
s 1
f 1/1/1 2/2/2 3/3/3 
f 4/4/4 5/5/5 1/1/1 
f 1/1/1 3/3/3 4/4/4 
f 5/5/5 4/4/4 6/6/6 
s 32
f 7/7/7 8/8/8 9/9/9 
f 9/9/9 10/10/10 7/7/7 
s 1
f 11/11/11 12/12/12 3/3/3 
f 3/3/3 2/2/2 11/11/11 
f 13/13/13 4/4/4 3/3/3 
f 3/3/3 12/12/12 13/13/13 
f 13/13/13 14/14/14 6/6/6 
f 6/6/6 4/4/4 13/13/13 
s 4
f 14/15/15 15/16/16 16/17/17 
f 16/17/17 6/18/18 14/15/15 
s 2
f 17/19/19 11/20/19 2/21/19 
f 2/21/19 18/22/19 17/19/19 
s 1
f 11/11/11 19/23/20 12/12/12 
f 20/24/21 13/13/13 12/12/12 
f 12/12/12 19/23/20 20/24/21 
f 13/13/13 20/24/21 14/14/14 
s 4
f 14/25/15 20/26/22 21/27/23 
f 21/27/23 15/28/16 14/25/15 
s 1
f 15/29/24 21/30/24 22/31/24 
s 8
f 23/32/25 22/31/26 21/30/26 
f 21/30/26 24/33/27 23/32/25 
f 25/34/28 23/32/25 24/33/27 
f 24/33/27 26/35/29 25/34/28 
f 25/34/28 26/35/29 27/36/30 
f 27/36/30 28/37/31 25/34/28 
f 28/37/31 27/36/30 17/38/32 
s 16
f 19/39/33 11/40/34 17/41/34 
f 17/41/34 27/42/35 19/39/33 
s 1
f 29/43/36 30/44/36 31/45/36 
f 31/45/36 32/46/36 29/43/36 
s 8
f 33/47/37 34/48/38 35/49/39 
f 35/49/39 36/50/40 33/47/37 
s 1
f 37/51/41 33/47/42 36/50/43 
f 36/50/43 38/52/44 37/51/41 
s 32
f 39/53/45 40/54/46 41/55/47 
s 8
f 42/56/48 43/57/48 18/58/48 
s 1
f 44/59/49 45/60/49 46/61/49 
s 32
f 47/62/50 48/63/51 49/64/52 
f 47/62/50 49/64/52 50/65/53 
f 47/62/50 50/65/53 51/66/54 
f 47/62/50 52/67/55 53/68/56 
f 53/68/56 48/63/51 47/62/50 
s 4
f 54/69/57 55/70/58 16/71/17 
s 32
f 10/10/10 9/9/9 56/72/59 
f 56/72/59 57/73/60 10/10/10 
f 58/74/61 59/75/62 60/76/63 
f 60/76/63 61/77/64 58/74/61 
f 62/78/65 59/75/62 58/74/61 
f 62/78/65 58/74/61 63/79/66 
f 62/78/65 63/79/66 64/80/67 
s 2
f 65/81/68 66/82/69 67/83/70 
f 67/83/70 68/84/71 65/81/68 
s 32
f 61/77/64 66/82/72 65/81/73 
f 61/77/64 65/81/73 63/79/66 
f 61/77/64 63/79/66 58/74/61 
s 1
f 69/85/74 70/60/74 71/86/74 
f 71/86/74 72/87/74 69/85/74 
s 8
f 73/88/75 74/89/76 75/90/77 
f 76/91/78 73/88/75 75/90/77 
f 76/91/78 75/90/77 77/92/79 
f 74/89/76 73/88/75 78/93/80 
f 78/93/80 79/94/81 74/89/76 
f 78/93/80 73/88/75 76/91/78 
f 76/91/78 80/95/82 78/93/80 
s 2
f 81/96/83 82/97/84 37/51/85 
f 37/51/85 38/52/86 81/96/83 
s 4
f 83/98/87 84/99/88 85/100/89 
f 85/100/89 86/101/90 83/98/87 
f 87/102/91 88/103/92 85/100/89 
f 85/100/89 84/99/88 87/102/91 
s 1
f 89/104/93 90/105/74 91/106/94 
f 91/106/94 92/107/95 89/104/93 
s 16
f 19/39/33 27/42/35 26/108/96 
f 19/39/33 26/108/96 24/109/96 
f 20/26/96 19/39/33 24/109/96 
f 20/26/96 24/109/96 21/27/96 
s 32
f 8/8/8 7/7/7 93/110/97 
f 8/8/8 93/110/97 94/111/98 
f 8/8/8 94/111/98 95/112/99 
f 8/8/8 95/112/99 39/113/45 
f 8/8/8 39/113/45 41/114/47 
s 4
f 46/115/100 42/116/101 18/117/102 
f 18/117/102 2/118/103 1/119/104 
f 46/115/100 18/117/102 1/119/104 
f 44/120/105 46/115/100 1/119/104 
f 44/120/105 1/119/104 41/121/106 
f 40/122/107 44/120/105 41/121/106 
s 32
f 28/37/108 50/65/53 49/64/52 
f 25/34/109 28/37/108 49/64/52 
f 7/7/7 25/34/109 49/64/52 
f 7/7/7 49/64/52 93/110/97 
f 51/66/54 50/65/53 28/37/108 
f 51/66/54 28/37/108 17/38/110 
f 51/66/54 17/38/110 18/58/111 
f 51/66/54 18/58/111 43/57/112 
f 45/123/113 44/124/114 40/125/46 
f 45/123/113 40/125/46 39/113/45 
f 52/67/55 45/123/113 39/113/45 
f 52/67/55 39/113/45 95/112/99 
f 52/67/55 95/112/99 53/68/56 
f 42/56/115 46/126/19 45/123/113 
f 42/56/115 45/123/113 52/67/55 
f 43/57/112 42/56/115 52/67/55 
f 51/66/54 43/57/112 52/67/55 
f 51/66/54 52/67/55 47/62/50 
f 53/68/56 95/112/99 94/111/98 
f 48/63/51 53/68/56 94/111/98 
f 48/63/51 94/111/98 93/110/97 
f 48/63/51 93/110/97 49/64/52 
s 4
f 22/31/116 62/78/116 64/80/117 
f 15/29/16 22/31/116 64/80/117 
f 16/127/17 15/29/16 64/80/117 
f 16/127/17 64/80/117 54/128/57 
f 5/129/118 6/130/18 16/131/17 
f 16/131/17 55/132/58 96/133/119 
f 5/129/118 16/131/17 96/133/119 
f 5/129/118 96/133/119 97/134/120 
s 2
f 98/135/121 56/136/122 9/137/123 
f 8/138/124 41/139/125 1/140/126 
f 9/137/123 8/138/124 1/140/126 
f 98/135/121 9/137/123 1/140/126 
f 97/141/127 98/135/121 1/140/126 
f 97/141/127 1/140/126 5/142/128 
s 32
f 56/72/59 98/143/129 67/83/130 
f 56/72/59 67/83/130 66/82/72 
f 57/73/60 56/72/59 66/82/72 
f 57/73/60 66/82/72 61/77/64 
f 57/73/60 61/77/64 60/76/63 
s 4
f 65/144/131 68/145/131 96/146/119 
f 65/144/131 96/146/119 55/147/58 
f 65/144/131 55/147/58 54/148/57 
f 63/149/131 65/144/131 54/148/57 
f 63/149/131 54/148/57 64/150/117 
s 2
f 67/60/70 98/151/121 97/152/127 
f 68/153/71 67/60/70 97/152/127 
f 68/153/71 97/152/127 96/154/132 
s 8
f 69/155/133 72/156/134 32/157/135 
f 69/155/133 32/157/135 31/158/136 
f 69/155/133 31/158/136 99/159/137 
f 69/155/133 99/159/137 100/160/138 
s 2
f 32/161/139 72/162/140 71/163/141 
f 29/164/142 32/161/139 71/163/141 
f 101/165/143 29/164/142 71/163/141 
f 101/165/143 71/163/141 102/166/144 
s 32
f 59/75/62 62/78/65 22/31/145 
f 23/32/146 75/90/147 74/89/148 
f 22/31/145 23/32/146 74/89/148 
f 59/75/62 22/31/145 74/89/148 
f 59/75/62 74/89/148 79/94/149 
f 79/94/149 100/167/150 99/168/151 
f 59/75/62 79/94/149 99/168/151 
f 60/76/63 59/75/62 99/168/151 
f 60/76/63 99/168/151 103/169/152 
f 60/76/63 103/169/152 10/10/10 
f 60/76/63 10/10/10 57/73/60 
s 4
f 102/170/153 71/171/154 70/172/155 
f 102/170/153 70/172/155 80/173/156 
f 102/170/153 80/173/156 76/174/157 
f 102/170/153 76/174/157 77/175/158 
s 2
f 79/94/159 78/93/160 80/176/161 
f 100/167/162 79/94/159 80/176/161 
f 100/167/162 80/176/161 70/177/163 
f 100/167/162 70/177/163 69/178/164 
f 89/104/165 104/179/166 103/180/167 
f 103/180/167 99/181/168 31/182/169 
f 89/104/165 103/180/167 31/182/169 
f 90/105/170 89/104/165 31/182/169 
f 90/105/170 31/182/169 30/183/171 
s 32
f 35/49/172 101/184/173 102/185/173 
f 35/49/172 102/185/173 77/92/174 
f 77/92/174 75/90/147 23/32/146 
f 77/92/174 23/32/146 25/34/109 
f 35/49/172 77/92/174 25/34/109 
f 36/50/175 35/49/172 25/34/109 
f 36/50/175 25/34/109 7/7/7 
f 38/52/176 36/50/175 7/7/7 
f 103/169/152 104/186/177 83/98/178 
f 10/10/10 103/169/152 83/98/178 
f 10/10/10 83/98/178 86/101/179 
f 7/7/7 10/10/10 86/101/179 
f 38/52/176 7/7/7 86/101/179 
f 38/52/176 86/101/179 81/96/173 
s 8
f 37/51/36 82/97/36 105/187/36 
f 33/47/37 37/51/36 105/187/36 
f 33/47/37 105/187/36 106/188/36 
f 33/47/37 106/188/36 34/48/38 
s 4
f 91/189/180 90/190/181 30/191/182 
f 91/189/180 30/191/182 29/192/183 
f 91/189/180 29/192/183 101/193/184 
f 106/194/185 91/189/180 101/193/184 
f 34/195/186 106/194/185 101/193/184 
f 34/195/186 101/193/184 35/196/187 
f 104/186/188 89/197/189 92/198/190 
f 104/186/188 92/198/190 87/102/91 
f 104/186/188 87/102/91 84/99/88 
f 104/186/188 84/99/88 83/98/87 
f 88/103/92 105/187/191 82/97/192 
f 85/100/89 88/103/92 82/97/192 
f 85/100/89 82/97/192 81/96/193 
f 85/100/89 81/96/193 86/101/90 
s 2
f 92/107/194 91/106/96 106/199/195 
f 87/200/196 92/107/194 106/199/195 
f 88/201/197 87/200/196 106/199/195 
f 88/201/197 106/199/195 105/202/198 
# 208 faces

