# 3ds Max Wavefront OBJ Exporter v0.99 - (c)2007 guruware
# File Created: 12.05.2025 22:26:34

mtllib OldHouseWhiteAgedWallSmallWindow.mtl

#
# object Box02
#

v  0.2830 3.5050 1.7479
v  -0.0103 3.5050 1.7479
v  -0.0103 0.0050 1.7479
v  0.2830 0.0050 1.7479
v  0.2830 2.6107 0.2297
v  -0.0103 2.6107 0.2297
v  -0.0103 1.1107 0.2297
v  0.2830 1.1107 0.2297
v  0.2830 2.6107 1.2297
v  -0.0103 2.6107 1.2297
v  0.2830 1.1107 1.2297
v  -0.0103 1.1107 1.2297
v  0.2830 0.0050 -0.2500
v  -0.0103 0.0050 -0.2500
v  0.2830 3.5050 -0.2500
v  -0.0103 3.5050 -0.2500
# 16 vertices

vn 0.0000 -0.0000 1.0000
vn 0.0000 0.0000 1.0000
vn 0.0000 -1.0000 0.0000
vn 0.0000 -0.0000 -1.0000
vn 0.0000 1.0000 -0.0000
vn 0.0000 -1.0000 -0.0000
vn 0.0000 1.0000 0.0000
vn 0.0000 0.0000 -1.0000
vn -1.0000 0.0000 -0.0000
vn 1.0000 0.0000 -0.0000
# 10 vertex normals

vt 0.4784 1.2564 0.0648
vt 0.4116 1.2564 0.0648
vt 0.4116 0.3253 0.0648
vt 0.4784 0.3253 0.0648
vt 0.0000 0.5823 0.0000
vt 0.0000 1.1246 0.0000
vt 0.8900 1.1246 0.0000
vt 0.8900 0.5823 0.0000
vt 0.8228 0.5823 0.0000
vt -0.0672 0.5823 0.0000
vt -0.0672 1.1246 0.0000
vt 0.8228 1.1246 0.0000
vt -0.0000 0.5823 0.0000
vt 0.0672 1.1246 0.0000
vt 0.9572 1.1246 0.0000
vt 0.9572 0.5823 0.0000
vt 0.0672 0.5823 0.0000
vt 0.4116 0.8611 0.1139
vt 0.4116 0.3104 0.1139
vt 0.4784 0.3104 0.1139
vt 0.4784 0.8611 0.1139
vt 0.4784 0.3104 0.8861
vt 0.4784 0.8611 0.8861
vt 0.4116 0.8611 0.8861
vt 0.4116 0.3104 0.8861
vt 0.4937 0.2373 0.0000
vt 0.4049 0.2373 0.0000
vt 0.4049 1.3329 0.0000
vt 0.4937 1.3329 0.0000
vt 0.0757 -0.7473 0.4624
vt 0.5449 -0.6167 0.4624
vt 0.2752 -0.6252 0.4624
vt 0.0755 -0.2737 0.4624
vt 0.2755 -0.3510 0.4624
vt 0.5462 -0.3875 0.4624
vt 0.7077 -0.7474 0.4624
vt 0.7077 -0.2737 0.4624
vt -0.2319 0.4843 0.5376
vt -0.0142 0.3746 0.5376
vt -0.0124 0.8311 0.5376
vt -0.2295 0.7212 0.5376
vt -0.5237 0.7565 0.5376
vt -0.6996 0.8311 0.5376
vt -0.6996 0.3740 0.5376
vt -0.5240 0.4919 0.5376
# 45 texture coords

o Box02
g Box02
usemtl WallWhiteAged
s 2
f 1/1/1 2/2/1 3/3/1 
f 3/3/1 4/4/1 1/1/1 
s 1
f 5/5/2 6/6/2 7/7/2 
f 7/7/2 8/8/2 5/5/2 
s 2
f 5/9/3 9/10/3 10/11/3 
f 10/11/3 6/12/3 5/9/3 
s 1
f 10/7/4 9/8/4 11/13/4 
f 11/13/4 12/6/4 10/7/4 
s 2
f 7/14/5 12/15/5 11/16/5 
f 11/16/5 8/17/5 7/14/5 
s 8
f 13/18/6 4/19/6 3/20/6 
f 3/20/6 14/21/6 13/18/6 
s 32
f 1/22/7 15/23/7 16/24/7 
f 16/24/7 2/25/7 1/22/7 
s 1
f 13/26/8 14/27/8 16/28/8 
f 16/28/8 15/29/8 13/26/8 
s 64
f 3/30/9 10/31/9 12/32/9 
f 14/33/9 3/30/9 12/32/9 
f 14/33/9 12/32/9 7/34/9 
f 14/33/9 7/34/9 6/35/9 
f 10/31/9 3/30/9 2/36/9 
f 6/35/9 10/31/9 2/36/9 
f 6/35/9 2/36/9 16/37/9 
f 14/33/9 6/35/9 16/37/9 
s 16
f 11/38/10 4/39/10 13/40/10 
f 8/41/10 11/38/10 13/40/10 
f 5/42/10 8/41/10 13/40/10 
f 5/42/10 13/40/10 15/43/10 
f 5/42/10 15/43/10 1/44/10 
f 4/39/10 11/38/10 9/45/10 
f 1/44/10 4/39/10 9/45/10 
f 5/42/10 1/44/10 9/45/10 
# 32 faces

