# 3ds Max Wavefront OBJ Exporter v0.99 - (c)2007 guruware
# File Created: 12.05.2025 22:16:25

mtllib OldHouseBaseStairsDown.mtl

#
# object Line01
#

v  -0.6396 -0.7478 -0.6290
v  0.4061 -0.7504 -0.6290
v  0.4061 -0.7504 -0.1957
v  -0.6396 -0.7478 -0.1957
v  0.4061 -0.6125 -0.6290
v  0.2240 -0.6099 -0.6290
v  0.2240 -0.6099 -0.1957
v  0.4061 -0.6269 -0.1957
v  0.2240 -0.4902 -0.6290
v  0.0211 -0.4902 -0.6290
v  0.0211 -0.4902 -0.1957
v  0.2240 -0.5049 -0.1957
v  0.0185 -0.3576 -0.6290
v  -0.1922 -0.3576 -0.6290
v  -0.1922 -0.3576 -0.1957
v  0.0415 -0.3751 -0.1957
v  -0.1922 -0.2171 -0.6290
v  -0.4055 -0.2171 -0.6290
v  -0.4055 -0.2171 -0.1957
v  -0.1757 -0.2171 -0.2277
v  -0.4081 -0.0715 -0.6290
v  -0.6422 -0.0715 -0.6290
v  -0.6422 -0.0715 -0.1957
v  -0.3909 -0.0912 -0.1957
v  0.4061 -0.7504 0.2377
v  -0.6396 -0.7478 0.2377
v  0.2240 -0.6099 0.2377
v  0.4061 -0.6317 0.2377
v  0.0211 -0.4902 0.2377
v  0.2240 -0.5067 0.2377
v  -0.1922 -0.3576 0.2377
v  0.0438 -0.3831 0.2377
v  -0.4188 -0.2171 0.2377
v  -0.1922 -0.2319 0.2377
v  -0.6422 -0.0715 0.2377
v  -0.3700 -0.0831 0.2565
v  0.4061 -0.7504 0.6710
v  -0.6396 -0.7478 0.6710
v  0.2240 -0.6099 0.6710
v  0.4061 -0.6125 0.6710
v  0.0211 -0.4902 0.6710
v  0.2240 -0.4902 0.6710
v  -0.1922 -0.3576 0.6710
v  0.0185 -0.3576 0.6710
v  -0.4055 -0.2171 0.6710
v  -0.1922 -0.2171 0.6710
v  -0.6422 -0.0715 0.6710
v  -0.4081 -0.0715 0.6710
# 48 vertices

vn -0.0025 -1.0000 -0.0000
vn 0.0343 0.9994 0.0084
vn 0.0143 0.9999 0.0000
vn 0.0829 0.9965 0.0123
vn 0.0962 0.9952 0.0179
vn 0.0201 0.9998 0.0094
vn 0.0000 1.0000 0.0000
vn 0.0620 0.9980 0.0122
vn 0.0732 0.9972 0.0174
vn 0.0234 0.9997 0.0114
vn 0.0641 0.9979 0.0130
vn 0.0802 0.9966 0.0207
vn 0.0095 0.9999 0.0050
vn 0.0261 0.9996 0.0141
vn 0.0659 0.9977 0.0145
vn 0.0721 0.9973 0.0169
vn -1.0000 -0.0038 -0.0000
vn 0.1157 0.9933 0.0041
vn 0.1059 0.9944 -0.0000
vn 0.0795 0.9968 0.0015
vn 0.0695 0.9976 -0.0032
vn 0.1022 0.9947 0.0060
vn 0.0920 0.9958 0.0006
vn 0.0556 0.9984 0.0110
vn 0.0558 0.9984 0.0116
vn 0.0492 0.9988 -0.0070
vn 0.0365 0.9992 -0.0142
vn 0.0410 0.9986 -0.0331
vn 0.0143 0.9989 -0.0443
vn 0.0226 0.9994 -0.0273
vn 0.0000 0.9993 -0.0379
vn 0.0342 0.9986 -0.0401
vn 0.0000 0.9983 -0.0587
vn 0.0199 0.9995 -0.0243
vn 0.0000 0.9994 -0.0341
vn 0.0158 0.9997 -0.0177
vn 0.0000 0.9996 -0.0281
vn 0.0000 0.0000 -1.0000
vn 0.0000 -0.0000 1.0000
# 39 vertex normals

vt 0.1611 -0.1521 0.7589
vt 0.8406 -0.1521 0.7609
vt 0.8406 0.2826 0.7609
vt 0.1611 0.2826 0.7589
vt 0.8406 -0.1521 0.6549
vt 0.7223 -0.1521 0.6529
vt 0.7223 0.2826 0.6529
vt 0.8406 0.2826 0.6660
vt 0.9923 -0.8321 0.5610
vt 0.8604 -0.8321 0.5610
vt 0.8604 -0.3974 0.5610
vt 0.9923 -0.3974 0.5722
vt 0.5887 -0.1521 0.4590
vt 0.4518 -0.1521 0.4590
vt 0.4518 0.2826 0.4590
vt 0.6037 0.2826 0.4725
vt 0.4018 0.0179 0.3511
vt 0.2632 0.0179 0.3511
vt 0.2632 0.4526 0.3511
vt 0.4125 0.4204 0.3511
vt 0.6015 -0.1750 0.2391
vt 0.4494 -0.1750 0.2391
vt 0.4494 0.3250 0.2391
vt 0.6127 0.3250 0.2543
vt 0.1594 -0.1521 0.2391
vt 0.1594 0.2826 0.2391
vt 0.8406 0.7174 0.7609
vt 0.1611 0.7174 0.7589
vt 0.7223 0.7174 0.6529
vt 0.8406 0.7174 0.6697
vt 0.8604 0.0374 0.5610
vt 0.9923 0.0374 0.5736
vt 0.4518 0.7174 0.4590
vt 0.6052 0.7174 0.4786
vt 0.2546 0.8874 0.3511
vt 0.4018 0.8874 0.3624
vt 0.4494 0.8250 0.2391
vt 0.6263 0.8467 0.2481
vt 0.1594 0.7174 0.2391
vt 0.8406 1.1521 0.7609
vt 0.1611 1.1521 0.7589
vt 0.7223 1.1521 0.6529
vt 0.8406 1.1521 0.6549
vt 0.8604 0.4721 0.5610
vt 0.9923 0.4721 0.5610
vt 0.4518 1.1521 0.4590
vt 0.5887 1.1521 0.4590
vt 0.2632 1.3221 0.3511
vt 0.4018 1.3221 0.3511
vt 0.4494 1.3250 0.2391
vt 0.6015 1.3250 0.2391
vt 0.1594 1.1521 0.2391
vt 0.3115 -0.1521 0.2391
vt 0.3132 -0.1521 0.3511
vt 0.4518 -0.1521 0.3511
vt 0.5904 -0.1521 0.5610
vt 0.7223 -0.1521 0.5610
vt 0.3115 1.1521 0.2391
vt 0.3132 1.1521 0.3511
vt 0.4518 1.1521 0.3511
vt 0.7223 1.1521 0.5610
vt 0.5904 1.1521 0.5610
# 62 texture coords

o Line01
g Line01
usemtl CobblestonesIrregular
s 1
f 1/1/1 2/2/1 3/3/1 
f 1/1/1 3/3/1 4/4/1 
s 2
f 5/5/2 6/6/3 7/7/4 
f 5/5/2 7/7/4 8/8/5 
f 9/9/6 10/10/7 11/11/8 
f 9/9/6 11/11/8 12/12/9 
f 13/13/10 14/14/7 15/15/11 
f 13/13/10 15/15/11 16/16/12 
f 17/17/7 18/18/7 19/19/7 
f 17/17/7 19/19/7 20/20/13 
f 21/21/14 22/22/7 23/23/15 
f 21/21/14 23/23/15 24/24/16 
s 4
f 22/25/17 1/1/17 4/4/17 
f 22/25/17 4/4/17 23/26/17 
s 1
f 4/4/1 3/3/1 25/27/1 
f 4/4/1 25/27/1 26/28/1 
s 2
f 8/8/5 7/7/4 27/29/18 
f 8/8/5 27/29/18 28/30/19 
f 12/12/9 11/11/8 29/31/20 
f 12/12/9 29/31/20 30/32/21 
f 16/16/12 15/15/11 31/33/22 
f 16/16/12 31/33/22 32/34/23 
f 20/20/13 19/19/7 33/35/24 
f 20/20/13 33/35/24 34/36/25 
f 24/24/16 23/23/15 35/37/26 
f 24/24/16 35/37/26 36/38/27 
s 4
f 23/26/17 4/4/17 26/28/17 
f 23/26/17 26/28/17 35/39/17 
s 1
f 26/28/1 25/27/1 37/40/1 
f 26/28/1 37/40/1 38/41/1 
s 2
f 28/30/19 27/29/18 39/42/28 
f 28/30/19 39/42/28 40/43/29 
f 30/32/21 29/31/20 41/44/30 
f 30/32/21 41/44/30 42/45/31 
f 32/34/23 31/33/22 43/46/32 
f 32/34/23 43/46/32 44/47/33 
f 34/36/25 33/35/24 45/48/34 
f 34/36/25 45/48/34 46/49/35 
f 36/38/27 35/37/26 47/50/36 
f 36/38/27 47/50/36 48/51/37 
s 4
f 35/39/17 26/28/17 38/41/17 
f 35/39/17 38/41/17 47/52/17 
s 16
f 21/53/38 1/1/38 22/25/38 
f 18/54/38 1/1/38 21/53/38 
f 1/1/38 5/5/38 2/2/38 
f 1/1/38 6/6/38 5/5/38 
f 14/14/38 18/54/38 17/55/38 
f 14/14/38 1/1/38 18/54/38 
f 6/6/38 10/56/38 9/57/38 
f 1/1/38 10/56/38 6/6/38 
f 14/14/38 10/56/38 1/1/38 
f 13/13/38 10/56/38 14/14/38 
f 48/58/39 47/52/39 38/41/39 
f 45/59/39 48/58/39 38/41/39 
f 38/41/39 37/40/39 40/43/39 
f 38/41/39 40/43/39 39/42/39 
f 43/46/39 46/60/39 45/59/39 
f 43/46/39 45/59/39 38/41/39 
f 39/42/39 42/61/39 41/62/39 
f 38/41/39 39/42/39 41/62/39 
f 43/46/39 38/41/39 41/62/39 
f 44/47/39 43/46/39 41/62/39 
# 62 faces

#
# object Object01dg
#

v  0.4061 -0.7504 -0.6290
v  0.4061 -0.6125 -0.6290
v  0.4061 -0.6269 -0.1957
v  0.4061 -0.7504 -0.1957
v  0.2240 -0.6099 -0.6290
v  0.2240 -0.4902 -0.6290
v  0.2240 -0.5049 -0.1957
v  0.2240 -0.6099 -0.1957
v  0.0211 -0.4902 -0.6290
v  0.0185 -0.3576 -0.6290
v  0.0415 -0.3751 -0.1957
v  0.0211 -0.4902 -0.1957
v  -0.1922 -0.3576 -0.6290
v  -0.1922 -0.2171 -0.6290
v  -0.1757 -0.2171 -0.2277
v  -0.1922 -0.3576 -0.1957
v  -0.4055 -0.2171 -0.6290
v  -0.4081 -0.0715 -0.6290
v  -0.3909 -0.0912 -0.1957
v  -0.4055 -0.2171 -0.1957
v  0.4061 -0.6317 0.2377
v  0.4061 -0.7504 0.2377
v  0.2240 -0.5067 0.2377
v  0.2240 -0.6099 0.2377
v  0.0438 -0.3831 0.2377
v  0.0211 -0.4902 0.2377
v  -0.1922 -0.2319 0.2377
v  -0.1922 -0.3576 0.2377
v  -0.3700 -0.0831 0.2565
v  -0.4188 -0.2171 0.2377
v  0.4061 -0.6125 0.6710
v  0.4061 -0.7504 0.6710
v  0.2240 -0.4902 0.6710
v  0.2240 -0.6099 0.6710
v  0.0185 -0.3576 0.6710
v  0.0211 -0.4902 0.6710
v  -0.1922 -0.2171 0.6710
v  -0.1922 -0.3576 0.6710
v  -0.4081 -0.0715 0.6710
v  -0.4055 -0.2171 0.6710
# 40 vertices

vn 1.0000 0.0000 -0.0000
vn 0.9990 -0.0129 -0.0436
vn 0.9984 0.0196 -0.0522
vn 0.9876 -0.1564 -0.0091
vn 0.9842 -0.1771 -0.0035
vn 0.9992 -0.0252 -0.0323
vn 0.9992 0.0000 -0.0411
vn 0.9948 -0.1010 0.0090
vn 0.9946 -0.1027 0.0153
vn 0.9995 -0.0062 -0.0318
vn 0.9991 0.0178 -0.0387
vn 0.9945 -0.1013 -0.0258
vn 0.9904 -0.1375 -0.0150
vn 0.9783 -0.2044 0.0342
vn 0.9821 -0.1861 0.0282
vn 0.9999 -0.0108 0.0031
vn 0.9421 -0.3301 0.0590
vn 0.9487 -0.3126 0.0469
vn 0.9998 -0.0168 0.0112
vn 0.9998 0.0196 0.0000
vn 0.9983 -0.0580 -0.0052
vn 0.9994 0.0178 -0.0307
# 22 vertex normals

vt 0.0289 0.2424 0.1831
vt 0.0289 0.3470 0.1831
vt 0.3430 0.3361 0.1831
vt 0.3430 0.2424 0.1831
vt 0.0289 0.3490 0.3230
vt 0.0289 0.4398 0.3230
vt 0.3430 0.4287 0.3230
vt 0.3430 0.3490 0.3230
vt 0.0289 0.4398 0.4789
vt 0.0289 0.5405 0.4809
vt 0.3430 0.5271 0.4632
vt 0.3430 0.4398 0.4789
vt 0.0289 0.5405 0.6428
vt 0.0289 0.6471 0.6428
vt 0.3197 0.6471 0.6301
vt 0.3430 0.5405 0.6428
vt 0.0289 0.6471 0.8067
vt 0.0289 0.7576 0.8087
vt 0.3430 0.7427 0.7955
vt 0.3430 0.6471 0.8067
vt 0.6570 0.3324 0.1831
vt 0.6570 0.2424 0.1831
vt 0.6570 0.4273 0.3230
vt 0.6570 0.3490 0.3230
vt 0.6570 0.5211 0.4615
vt 0.6570 0.4398 0.4789
vt 0.6570 0.6358 0.6428
vt 0.6570 0.5405 0.6428
vt 0.6707 0.7488 0.7795
vt 0.6570 0.6471 0.8169
vt 0.9711 0.3470 0.1831
vt 0.9711 0.2424 0.1831
vt 0.9711 0.4398 0.3230
vt 0.9711 0.3490 0.3230
vt 0.9711 0.5405 0.4809
vt 0.9711 0.4398 0.4789
vt 0.9711 0.6471 0.6428
vt 0.9711 0.5405 0.6428
vt 0.9711 0.7576 0.8087
vt 0.9711 0.6471 0.8067
# 40 texture coords

o Object01dg
g Object01dg
usemtl OldHouseBaseCorner1
s 4
f 49/63/40 50/64/40 51/65/40 
f 49/63/40 51/65/40 52/66/40 
f 53/67/40 54/68/40 55/69/40 
f 53/67/40 55/69/40 56/70/40 
f 57/71/41 58/72/42 59/73/43 
f 57/71/41 59/73/43 60/74/44 
f 61/75/45 62/76/46 63/77/47 
f 61/75/45 63/77/47 64/78/48 
f 65/79/49 66/80/50 67/81/51 
f 65/79/49 67/81/51 68/82/52 
f 52/66/40 51/65/40 69/83/40 
f 52/66/40 69/83/40 70/84/40 
f 56/70/40 55/69/40 71/85/40 
f 56/70/40 71/85/40 72/86/40 
f 60/74/44 59/73/43 73/87/53 
f 60/74/44 73/87/53 74/88/54 
f 64/78/48 63/77/47 75/89/55 
f 64/78/48 75/89/55 76/90/40 
f 68/82/52 67/81/51 77/91/56 
f 68/82/52 77/91/56 78/92/57 
f 70/84/40 69/83/40 79/93/40 
f 70/84/40 79/93/40 80/94/40 
f 72/86/40 71/85/40 81/95/40 
f 72/86/40 81/95/40 82/96/40 
f 74/88/54 73/87/53 83/97/58 
f 74/88/54 83/97/58 84/98/59 
f 76/90/40 75/89/55 85/99/40 
f 76/90/40 85/99/40 86/100/40 
f 78/92/57 77/91/56 87/101/60 
f 78/92/57 87/101/60 88/102/61 
# 30 faces

#
# object C_Ext01
#

v  -0.7451 0.0915 -0.7258
v  -0.6277 0.0915 -0.6134
v  0.4371 0.0915 -0.6134
v  0.4371 0.0915 -0.7258
v  -0.7451 0.0915 0.7539
v  -0.6277 0.0915 0.6441
v  0.4371 0.0915 0.7539
v  0.4371 0.0915 0.6441
v  -0.7632 0.0741 -0.7465
v  0.4371 0.0741 -0.7465
v  -0.7632 0.0741 0.7759
v  0.4371 0.0741 0.7759
v  0.4371 0.0741 0.6222
v  -0.6095 0.0741 0.6222
v  -0.6095 0.0741 -0.5928
v  0.4371 0.0741 -0.5928
v  -0.7632 -0.7600 -0.7465
v  0.4371 -0.7600 -0.7465
v  -0.7632 -0.7600 0.7759
v  0.4371 -0.7600 0.7759
v  0.4371 -0.7600 0.6222
v  -0.6095 -0.7600 0.6222
v  -0.6095 -0.7600 -0.5928
v  0.4371 -0.7600 -0.5928
# 24 vertices

vn -0.0000 1.0000 -0.0000
vn 0.0000 1.0000 -0.0000
vn -0.0000 0.3221 -0.9467
vn 0.0000 0.7648 -0.6443
vn -0.0000 0.7648 -0.6443
vn -0.0000 0.4217 -0.9067
vn -0.9618 0.2737 0.0000
vn -0.6924 0.7215 0.0000
vn -0.9599 0.2802 -0.0000
vn 0.0000 0.4354 0.9002
vn 0.0000 0.7839 0.6209
vn 0.0000 0.3361 0.9418
vn 1.0000 0.0000 -0.0000
vn 1.0000 -0.0000 -0.0000
vn 0.0000 0.5013 -0.8653
vn 0.0000 0.7839 -0.6209
vn 0.0000 0.4354 -0.9002
vn 0.8873 0.4613 0.0000
vn 0.6924 0.7215 0.0000
vn 0.8860 0.4637 0.0000
vn 0.0000 0.4217 0.9067
vn 0.0000 0.7648 0.6443
vn 0.0000 0.4872 0.8733
vn -0.0000 0.0000 -1.0000
vn 0.0000 0.0000 -1.0000
vn -1.0000 0.0000 -0.0000
vn 0.0000 0.0000 1.0000
vn 0.0000 -0.0000 1.0000
vn 0.0000 -1.0000 -0.0000
# 29 vertex normals

vt 0.1083 0.8929 0.9995
vt 0.1873 0.8333 0.9995
vt 0.9039 0.8333 0.9995
vt 0.9039 0.8929 0.9995
vt 0.1083 0.1078 0.9995
vt 0.1873 0.1660 0.9995
vt 0.9039 0.1078 0.9995
vt 0.9039 0.1660 0.9995
vt 0.0961 0.9039 0.0005
vt 0.9039 0.9039 0.0005
vt 0.0961 0.0961 0.0005
vt 0.9039 0.0961 0.0005
vt 0.2094 0.7215 0.8641
vt 0.1989 0.7309 0.8641
vt 0.1464 0.7309 0.8641
vt 0.1359 0.7215 0.8641
vt 0.1995 0.1777 0.0005
vt 0.9039 0.1777 0.0005
vt 0.1995 0.8223 0.0005
vt 0.9039 0.8223 0.0005
vt 0.8641 0.7215 0.8641
vt 0.8543 0.7309 0.8641
vt 0.8005 0.7309 0.8641
vt 0.7906 0.7215 0.8641
vt 0.8641 0.2691 0.8641
vt 0.1359 0.2691 0.8641
vt 0.8641 0.2691 0.1359
vt 0.8641 0.7215 0.1359
vt 0.1359 0.7215 0.1359
vt 0.1359 0.2691 0.1359
vt 0.2094 0.2691 0.8641
vt 0.7709 0.2691 0.2094
vt 0.7709 0.7215 0.2094
vt 0.1359 0.7215 0.2094
vt 0.1359 0.2691 0.2094
vt 0.7906 0.2691 0.2291
vt 0.7906 0.7215 0.2291
vt 0.2094 0.7215 0.2291
vt 0.2094 0.2691 0.2291
vt 0.8641 0.2691 0.7906
vt 0.8641 0.7215 0.7906
vt 0.2291 0.7215 0.7906
vt 0.2291 0.2691 0.7906
vt 0.7906 0.2691 0.8641
vt 0.7709 0.7906 0.2691
vt 0.8641 0.8641 0.2691
vt 0.1359 0.8641 0.2691
vt 0.1359 0.7906 0.2691
vt 0.7709 0.2094 0.2691
vt 0.8641 0.1359 0.2691
vt 0.1359 0.2094 0.2691
vt 0.1359 0.1359 0.2691
# 52 texture coords

o C_Ext01
g C_Ext01
usemtl OldHouseBaseCorner1
s 1
f 89/103/62 90/104/62 91/105/63 
f 91/105/63 92/106/63 89/103/62 
f 93/107/63 94/108/63 90/104/62 
f 90/104/62 89/103/62 93/107/63 
f 95/109/63 96/110/63 94/108/63 
f 94/108/63 93/107/63 95/109/63 
s 2
f 97/111/64 89/103/65 92/106/66 
f 92/106/66 98/112/67 97/111/64 
s 4
f 99/113/68 93/107/69 89/103/69 
f 89/103/69 97/111/70 99/113/68 
s 2
f 100/114/71 95/109/72 93/107/72 
f 93/107/72 99/113/73 100/114/71 
s 4
f 101/115/74 96/116/74 95/117/75 
f 95/117/75 100/118/75 101/115/74 
s 2
f 102/119/76 94/108/77 96/110/77 
f 96/110/77 101/120/78 102/119/76 
s 4
f 103/121/79 90/104/80 94/108/80 
f 94/108/80 102/119/81 103/121/79 
s 2
f 104/122/82 91/105/83 90/104/83 
f 90/104/83 103/121/84 104/122/82 
s 4
f 98/123/74 92/124/74 91/125/74 
f 91/125/74 104/126/74 98/123/74 
s 2
f 105/127/85 97/123/64 98/118/67 
f 98/118/67 106/128/86 105/127/85 
s 4
f 107/129/87 99/130/68 97/131/70 
f 97/131/70 105/132/87 107/129/87 
s 2
f 108/129/88 100/130/71 99/131/73 
f 99/131/73 107/132/88 108/129/88 
s 4
f 109/133/74 101/115/74 100/118/75 
f 100/118/75 108/128/74 109/133/74 
s 2
f 110/134/86 102/135/76 101/136/78 
f 101/136/78 109/137/86 110/134/86 
s 4
f 111/138/74 103/139/79 102/140/81 
f 102/140/81 110/141/74 111/138/74 
s 2
f 112/142/89 104/143/82 103/144/84 
f 103/144/84 111/145/89 112/142/89 
s 4
f 106/127/74 98/123/74 104/126/74 
f 104/126/74 112/146/74 106/127/74 
s 1
f 111/147/90 105/148/90 106/149/90 
f 106/149/90 112/150/90 111/147/90 
f 110/151/90 107/152/90 105/148/90 
f 105/148/90 111/147/90 110/151/90 
f 109/153/90 108/154/90 107/152/90 
f 107/152/90 110/151/90 109/153/90 
# 44 faces

