# 3ds Max Wavefront OBJ Exporter v0.99 - (c)2007 guruware
# File Created: 12.05.2025 22:25:27

mtllib OldHouseWhiteAgedWallLargeWindow.mtl

#
# object Box02
#

v  0.2830 3.5050 1.9086
v  -0.0103 0.0050 1.9086
v  0.2830 0.0050 1.9086
v  0.2830 3.5050 -2.0914
v  -0.0103 0.0050 -2.0914
v  -0.0103 3.5050 -2.0914
v  0.2830 0.0050 -2.0914
v  -0.0103 1.1107 0.1542
v  0.2830 1.1107 0.1542
v  0.2830 2.6107 0.1542
v  -0.0103 2.6107 0.1542
v  0.2830 2.6107 1.1542
v  -0.0103 2.6107 1.1542
v  0.2830 1.1107 1.1542
v  -0.0103 1.1107 1.1542
v  -0.0103 3.5050 1.9086
# 16 vertices

vn 0.0000 -0.0000 1.0000
vn 0.0000 0.0000 -1.0000
vn 0.0000 -1.0000 -0.0000
vn 0.0000 1.0000 0.0000
vn -1.0000 0.0000 -0.0000
vn 1.0000 0.0000 -0.0000
vn 0.0000 0.0000 1.0000
vn 0.0000 -1.0000 0.0000
vn 0.0000 -0.0000 -1.0000
vn 0.0000 1.0000 -0.0000
# 10 vertex normals

vt -0.8312 0.6720 0.0648
vt -0.1068 0.5780 0.0648
vt -0.1068 0.6720 0.0648
vt -0.8312 0.5780 0.9793
vt -0.1068 0.6720 0.9793
vt -0.8312 0.6720 0.9793
vt -0.9186 0.5780 0.1139
vt -0.0608 0.6720 0.1139
vt -0.9186 0.6720 0.1139
vt -0.9186 0.5780 0.8861
vt -0.0608 0.6720 0.8861
vt -0.9186 0.6720 0.8861
vt 0.4337 0.3865 0.4624
vt 0.0195 0.9940 0.4624
vt 0.0195 0.1060 0.4624
vt -0.4284 -0.3223 0.5376
vt -0.8281 -0.9826 0.5376
vt -0.4284 -0.7360 0.5376
vt -0.3068 -0.0000 0.0000
vt -0.7287 1.2500 0.0000
vt -0.3068 1.2500 0.0000
vt -0.7287 -0.0000 0.0000
vt -0.8312 0.5780 0.0648
vt -0.1068 0.5780 0.9793
vt -0.0608 0.5780 0.1139
vt -0.0608 0.5780 0.8861
vt 0.6181 0.7671 0.4624
vt 0.7573 0.1060 0.4624
vt 0.7573 0.9940 0.4624
vt 0.6181 0.3865 0.4624
vt 0.4337 0.7671 0.4624
vt -0.1161 -0.0174 0.5376
vt -0.2504 -0.7360 0.5376
vt -0.1161 -0.9826 0.5376
vt -0.2504 -0.3223 0.5376
vt -0.8281 -0.0174 0.5376
# 36 texture coords

o Box02
g Box02
usemtl WallWhiteAged
s 2
f 1/1/1 2/2/1 3/3/1 
s 4
f 4/4/2 5/5/2 6/6/2 
s 8
f 7/7/3 2/8/3 5/9/3 
s 32
f 6/10/4 1/11/4 4/12/4 
s 64
f 8/13/5 6/14/5 5/15/5 
s 16
f 9/16/6 4/17/6 10/18/6 
s 1
f 10/19/7 8/20/7 9/21/7 
s 2
f 11/20/8 12/19/8 13/22/8 
s 1
f 13/20/9 14/19/9 15/22/9 
s 2
f 9/19/10 15/20/10 14/21/10 
f 2/2/1 1/1/1 16/23/1 
s 4
f 5/5/2 4/4/2 7/24/2 
s 8
f 2/8/3 7/7/3 3/25/3 
s 32
f 1/11/4 6/10/4 16/26/4 
s 64
f 13/27/5 2/28/5 16/29/5 
f 15/30/5 2/28/5 13/27/5 
f 6/14/5 13/27/5 16/29/5 
f 6/14/5 11/31/5 13/27/5 
f 15/30/5 5/15/5 2/28/5 
f 8/13/5 5/15/5 15/30/5 
f 6/14/5 8/13/5 11/31/5 
s 16
f 3/32/6 12/33/6 1/34/6 
f 3/32/6 14/35/6 12/33/6 
f 12/33/6 4/17/6 1/34/6 
f 10/18/6 4/17/6 12/33/6 
f 7/36/6 14/35/6 3/32/6 
f 7/36/6 9/16/6 14/35/6 
f 4/17/6 9/16/6 7/36/6 
s 1
f 8/20/7 10/19/7 11/22/7 
s 2
f 12/19/8 11/20/8 10/21/8 
s 1
f 14/19/9 13/20/9 12/21/9 
s 2
f 15/20/10 9/19/10 8/22/10 
# 32 faces

