# 3ds Max Wavefront OBJ Exporter v0.99 - (c)2007 guruware
# File Created: 12.05.2025 22:26:54

mtllib OldHouseWhiteWallLargeDamaged.mtl

#
# object crack1aaa
#

v  0.1598 2.6417 1.9086
v  0.1598 2.0643 1.9086
v  0.2673 2.0643 1.8334
v  0.2673 2.6417 1.8334
v  0.2673 1.9813 1.8375
v  0.1744 1.8594 1.9086
v  0.2830 1.6389 1.8776
v  0.2830 1.6473 1.8764
v  0.2673 1.6433 1.8860
v  0.2292 1.6389 1.9086
v  0.2673 0.1149 1.0999
v  0.2673 0.0050 1.2098
v  0.2673 0.0050 -0.6452
v  0.2673 0.1633 -0.6108
v  0.2673 0.5668 0.0105
v  0.2673 0.6233 0.2284
v  0.2673 0.2763 0.3979
v  0.2673 0.3489 -0.2315
v  0.2673 0.2521 -0.3526
v  0.2673 0.1311 0.5834
v  0.2673 0.1956 0.7206
v  0.2673 0.1956 0.9385
v  0.2673 0.2360 -1.8615
v  0.2673 0.1230 -1.5468
v  0.2673 0.0262 -1.4984
v  0.2673 0.0050 -1.5033
v  0.2673 0.0050 -2.0914
v  0.2673 0.2491 -2.0914
v  0.2673 1.8337 -0.7480
v  0.2673 1.8417 -1.2160
v  0.2673 2.1080 -1.2402
v  0.2673 2.2048 -1.2079
v  0.2673 2.2129 -0.7157
v  0.2673 2.2775 -0.6108
v  0.2673 1.7772 -0.6834
v  0.2673 2.3662 -0.4655
v  0.2673 2.3420 -0.1751
v  0.2673 2.1726 -0.0621
v  0.2673 2.0273 -0.0621
v  0.2673 1.9063 0.0509
v  0.2673 1.7691 0.0025
v  0.2673 1.6884 1.7777
v  0.2673 1.8740 1.7373
v  0.2673 2.1403 1.7696
v  0.2673 2.3904 1.7212
v  0.2673 2.5195 1.5760
v  0.2673 2.7535 1.5275
v  0.2673 2.9553 1.6324
v  0.2673 3.0300 1.8848
v  0.2673 3.0462 1.8856
v  0.2770 3.0441 1.8799
v  0.2830 3.0425 1.8755
v  0.2830 3.0529 1.8769
v  0.2830 3.0672 1.8776
v  0.2292 3.0672 1.9086
v  0.2202 2.9611 1.9086
# 56 vertices

vn 0.5728 -0.0513 0.8181
vn 0.5735 0.0200 0.8190
vn 0.5735 0.0202 0.8190
vn 0.5728 -0.0527 0.8180
vn 0.5567 0.0592 0.8286
vn 0.5180 0.1008 0.8494
vn 0.4962 0.1233 0.8594
vn 1.0000 0.0000 -0.0000
vn 0.5255 -0.0657 0.8482
vn 0.5702 -0.1079 0.8144
vn 0.5161 -0.0570 0.8546
vn 0.4996 -0.0420 0.8653
vn 0.5580 -0.0962 0.8242
# 13 vertex normals

vt 1.3891 0.9868 0.9995
vt 1.3891 0.7326 0.9995
vt 1.3556 0.7326 0.1275
vt 1.3556 0.9868 0.1275
vt 1.3574 0.6960 0.1275
vt 1.3891 0.6424 0.8813
vt 1.3753 0.5453 0.0005
vt 1.3747 0.5490 0.0005
vt 1.3790 0.5472 0.1275
vt 1.3891 0.5453 0.4369
vt 1.0295 -0.1257 0.1275
vt 1.0784 -0.1741 0.1275
vt 0.2538 -0.1741 0.1275
vt 0.2691 -0.1044 0.1275
vt 0.5453 0.0733 0.1275
vt 0.6421 0.0981 0.1275
vt 0.7175 -0.0546 0.1275
vt 0.4377 -0.0227 0.1275
vt 0.3839 -0.0653 0.1275
vt 0.8000 -0.1186 0.1275
vt 0.8610 -0.0902 0.1275
vt 0.9578 -0.0902 0.1275
vt -0.2869 -0.0724 0.1275
vt -0.1470 -0.1221 0.1275
vt -0.1255 -0.1648 0.1275
vt -0.1277 -0.1741 0.1275
vt -0.3891 -0.1741 0.1275
vt -0.3891 -0.0666 0.1275
vt 0.2081 0.6310 0.1275
vt 0.0001 0.6346 0.1275
vt -0.0107 0.7518 0.1275
vt 0.0037 0.7944 0.1275
vt 0.2225 0.7980 0.1275
vt 0.2691 0.8264 0.1275
vt 0.2368 0.6062 0.1275
vt 0.3337 0.8655 0.1275
vt 0.4628 0.8548 0.1275
vt 0.5130 0.7802 0.1275
vt 0.5130 0.7163 0.1275
vt 0.5632 0.6630 0.1275
vt 0.5417 0.6026 0.1275
vt 1.3309 0.5671 0.1275
vt 1.3129 0.6488 0.1275
vt 1.3273 0.7660 0.1275
vt 1.3057 0.8762 0.1275
vt 1.2412 0.9330 0.1275
vt 1.2197 1.0360 0.1275
vt 1.2663 1.1248 0.1275
vt 1.3785 1.1577 0.1275
vt 1.3788 1.1648 0.1275
vt 1.3763 1.1639 0.0490
vt 1.3743 1.1632 0.0005
vt 1.3750 1.1678 0.0005
vt 1.3753 1.1741 0.0005
vt 1.3891 1.1741 0.4369
vt 1.3891 1.1274 0.5092
# 56 texture coords

o crack1aaa
g crack1aaa
usemtl Wall_Stone2
s 4
f 1/1/1 2/2/2 3/3/3 
f 3/3/3 4/4/4 1/1/1 
f 5/5/5 3/3/3 2/2/2 
f 5/5/5 2/2/2 6/6/6 
f 7/7/7 8/8/7 9/9/7 
f 10/10/7 7/7/7 9/9/7 
f 6/6/6 10/10/7 9/9/7 
f 5/5/5 6/6/6 9/9/7 
s 16
f 11/11/8 12/12/8 13/13/8 
f 11/11/8 13/13/8 14/14/8 
f 15/15/8 16/16/8 17/17/8 
f 18/18/8 15/15/8 17/17/8 
f 19/19/8 18/18/8 17/17/8 
f 19/19/8 17/17/8 20/20/8 
f 14/14/8 19/19/8 20/20/8 
f 11/11/8 14/14/8 20/20/8 
f 11/11/8 20/20/8 21/21/8 
f 11/11/8 21/21/8 22/22/8 
s 1
f 23/23/8 24/24/8 25/25/8 
f 23/23/8 25/25/8 26/26/8 
f 23/23/8 26/26/8 27/27/8 
f 23/23/8 27/27/8 28/28/8 
s 8
f 29/29/8 30/30/8 31/31/8 
f 29/29/8 31/31/8 32/32/8 
f 29/29/8 32/32/8 33/33/8 
f 29/29/8 33/33/8 34/34/8 
f 35/35/8 29/29/8 34/34/8 
f 35/35/8 34/34/8 36/36/8 
f 35/35/8 36/36/8 37/37/8 
f 35/35/8 37/37/8 38/38/8 
f 35/35/8 38/38/8 39/39/8 
f 35/35/8 39/39/8 40/40/8 
f 35/35/8 40/40/8 41/41/8 
f 5/5/8 9/9/8 42/42/8 
f 5/5/8 42/42/8 43/43/8 
f 5/5/8 43/43/8 44/44/8 
f 3/3/8 5/5/8 44/44/8 
f 4/4/8 3/3/8 44/44/8 
f 4/4/8 44/44/8 45/45/8 
f 4/4/8 45/45/8 46/46/8 
f 4/4/8 46/46/8 47/47/8 
f 4/4/8 47/47/8 48/48/8 
f 49/49/8 4/4/8 48/48/8 
f 49/49/8 48/48/8 50/50/8 
s 4
f 51/51/9 52/52/10 53/53/11 
f 50/50/12 51/51/9 53/53/11 
f 50/50/12 53/53/11 54/54/12 
f 50/50/12 54/54/12 55/55/12 
f 49/49/11 50/50/12 55/55/12 
f 49/49/11 55/55/12 56/56/13 
f 56/56/13 1/1/1 4/4/4 
f 49/49/11 56/56/13 4/4/4 
# 52 faces

#
# object Box02
#

v  -0.0103 3.5050 -2.0914
v  -0.0103 3.5050 1.9086
v  0.2830 3.5050 1.9086
v  0.2830 3.5050 -2.0914
v  -0.0103 0.0050 -2.0914
v  -0.0103 0.0050 1.9086
v  0.2830 0.1633 -0.6108
v  0.2673 0.1633 -0.6108
v  0.2673 0.0050 -0.6452
v  0.2830 0.0050 -0.6452
v  0.2830 0.2521 -0.3526
v  0.2673 0.2521 -0.3526
v  0.2830 0.3489 -0.2315
v  0.2673 0.3489 -0.2315
v  0.2830 0.5668 0.0105
v  0.2673 0.5668 0.0105
v  0.2830 0.6233 0.2284
v  0.2673 0.6233 0.2284
v  0.2830 0.2763 0.3979
v  0.2673 0.2763 0.3979
v  0.2830 0.1311 0.5834
v  0.2673 0.1311 0.5834
v  0.2830 0.1956 0.7206
v  0.2673 0.1956 0.7206
v  0.2830 0.1956 0.9385
v  0.2673 0.1956 0.9385
v  0.2830 0.1149 1.0999
v  0.2673 0.1149 1.0999
v  0.2830 0.0050 1.2098
v  0.2673 0.0050 1.2098
v  0.2673 0.2491 -2.0914
v  0.2830 0.2491 -2.0914
v  0.2830 0.2360 -1.8615
v  0.2673 0.2360 -1.8615
v  0.2830 0.1230 -1.5468
v  0.2673 0.1230 -1.5468
v  0.2830 0.0262 -1.4984
v  0.2673 0.0262 -1.4984
v  0.2830 0.0050 -1.5033
v  0.2673 0.0050 -1.5033
v  0.2673 1.8337 -0.7480
v  0.2830 1.8337 -0.7480
v  0.2830 1.8417 -1.2160
v  0.2673 1.8417 -1.2160
v  0.2830 2.1080 -1.2402
v  0.2673 2.1080 -1.2402
v  0.2830 2.2048 -1.2079
v  0.2673 2.2048 -1.2079
v  0.2830 2.2129 -0.7157
v  0.2673 2.2129 -0.7157
v  0.2830 2.2775 -0.6108
v  0.2673 2.2775 -0.6108
v  0.2830 2.3662 -0.4655
v  0.2673 2.3662 -0.4655
v  0.2830 2.3420 -0.1751
v  0.2673 2.3420 -0.1751
v  0.2830 2.1726 -0.0621
v  0.2673 2.1726 -0.0621
v  0.2830 2.0273 -0.0621
v  0.2673 2.0273 -0.0621
v  0.2830 1.9063 0.0509
v  0.2673 1.9063 0.0509
v  0.2830 1.7691 0.0025
v  0.2673 1.7691 0.0025
v  0.2830 1.7772 -0.6834
v  0.2673 1.7772 -0.6834
v  0.2673 1.6884 1.7777
v  0.2830 1.6884 1.7777
v  0.2830 1.8740 1.7373
v  0.2673 1.8740 1.7373
v  0.2830 2.1403 1.7696
v  0.2673 2.1403 1.7696
v  0.2830 2.3904 1.7212
v  0.2673 2.3904 1.7212
v  0.2830 2.5195 1.5760
v  0.2673 2.5195 1.5760
v  0.2830 2.7535 1.5275
v  0.2673 2.7535 1.5275
v  0.2830 2.9553 1.6324
v  0.2673 2.9553 1.6324
v  0.2673 1.6389 1.8965
v  0.2673 1.6389 1.9086
v  0.2673 1.6339 1.9086
v  0.2830 1.6339 1.9086
v  0.2830 1.6389 1.8965
v  0.2830 3.0425 1.8755
v  0.2770 3.0441 1.8799
v  0.2673 3.0462 1.8856
v  0.2830 1.6473 1.8764
v  0.2673 1.6433 1.8860
v  0.2830 3.0672 1.9086
v  0.2292 3.0672 1.9086
v  0.2830 3.0672 1.8776
v  0.2673 0.0050 -2.0914
v  0.2830 0.0050 1.9086
v  0.2830 1.6389 1.8776
v  0.2830 3.0529 1.8769
v  0.2292 1.6389 1.9086
v  0.1744 1.8594 1.9086
v  0.1598 2.0643 1.9086
v  0.1598 2.6417 1.9086
v  0.2202 2.9611 1.9086
# 102 vertices

vn 0.0000 1.0000 0.0000
vn -1.0000 0.0000 -0.0000
vn 0.0000 -0.2124 0.9772
vn 0.0000 -0.9457 0.3251
vn 0.0000 -0.7809 0.6247
vn 0.0000 -0.7433 0.6690
vn 0.0000 -0.9680 0.2510
vn 0.0000 -0.4388 -0.8986
vn 0.0000 -0.7875 -0.6163
vn 0.0000 -0.9048 0.4258
vn 0.0000 -1.0000 0.0000
vn 0.0000 -0.8944 -0.4472
vn 0.0000 -0.7071 -0.7071
vn 0.0000 -0.9984 -0.0570
vn 0.0000 -0.9412 -0.3379
vn 0.0000 -0.4472 -0.8944
vn 0.0000 0.2249 -0.9744
vn 0.0000 0.9999 0.0172
vn 0.0000 0.0905 0.9959
vn 0.0000 -0.3162 0.9487
vn 0.0000 -0.9999 0.0164
vn 0.0000 -0.8517 0.5241
vn 0.0000 -0.8533 0.5215
vn 0.0000 -0.9965 -0.0830
vn 0.0000 -0.5547 -0.8321
vn 0.0000 0.0000 -1.0000
vn 0.0000 -0.6823 -0.7311
vn 0.0000 0.3328 -0.9430
vn 0.0000 0.9999 0.0118
vn 0.0000 0.7526 0.6585
vn 0.0000 0.2124 0.9772
vn 0.0000 -0.1203 0.9927
vn 0.0000 0.1900 0.9818
vn 0.0000 0.7474 0.6644
vn 0.0000 0.2026 0.9793
vn 0.0000 -0.4614 0.8872
vn 1.0000 0.0000 -0.0000
vn 0.0000 0.9231 0.3846
vn 0.0000 -0.9412 0.3379
vn -0.0000 -0.9412 0.3379
vn 0.0000 -1.0000 -0.0000
vn 0.0000 -0.0000 1.0000
# 42 vertex normals

vt -0.1754 -0.9693 0.8861
vt -0.1754 -0.0548 0.8861
vt -0.2073 -0.0548 0.8861
vt -0.2073 -0.9693 0.8861
vt -0.0086 -0.1039 0.4624
vt -0.3979 -0.1039 0.4624
vt -0.3979 -0.8761 0.4624
vt -0.0086 -0.8761 0.4624
vt 0.2283 0.9913 0.0000
vt 0.2283 1.0000 0.0000
vt 0.2438 1.0000 0.0000
vt 0.2438 0.9913 0.0000
vt 0.2021 0.9913 0.0000
vt 0.2021 1.0000 0.0000
vt 0.1872 0.9913 0.0000
vt 0.1872 1.0000 0.0000
vt 0.1559 0.9913 0.0000
vt 0.1559 1.0000 0.0000
vt 0.1343 0.9913 0.0000
vt 0.1343 1.0000 0.0000
vt 0.0973 0.9913 0.0000
vt 0.0973 1.0000 0.0000
vt 0.0747 0.9913 0.0000
vt 0.0747 1.0000 0.0000
vt 0.0601 0.9913 0.0000
vt 0.0601 1.0000 0.0000
vt 0.0392 0.9913 0.0000
vt 0.0392 1.0000 0.0000
vt 0.0219 0.9913 0.0000
vt 0.0219 1.0000 0.0000
vt 0.0070 0.9913 0.0000
vt 0.0070 1.0000 0.0000
vt 0.3390 1.0000 0.0000
vt 0.3390 0.9913 0.0000
vt 0.2846 0.9913 0.0000
vt 0.2846 1.0000 0.0000
vt 0.2055 0.9913 0.0000
vt 0.2055 1.0000 0.0000
vt 0.1799 0.9913 0.0000
vt 0.1799 1.0000 0.0000
vt 0.1748 0.9913 0.0000
vt 0.1748 1.0000 0.0000
vt 0.4300 1.0000 0.0000
vt 0.4300 0.9913 0.0000
vt 0.3699 0.9913 0.0000
vt 0.3699 1.0000 0.0000
vt 0.3355 0.9913 0.0000
vt 0.3355 1.0000 0.0000
vt 0.3224 0.9913 0.0000
vt 0.3224 1.0000 0.0000
vt 0.2591 0.9913 0.0000
vt 0.2591 1.0000 0.0000
vt 0.2433 0.9913 0.0000
vt 0.2433 1.0000 0.0000
vt 0.2214 0.9913 0.0000
vt 0.2214 1.0000 0.0000
vt 0.1840 0.9913 0.0000
vt 0.1840 1.0000 0.0000
vt 0.1578 0.9913 0.0000
vt 0.1578 1.0000 0.0000
vt 0.1391 0.9913 0.0000
vt 0.1391 1.0000 0.0000
vt 0.1179 0.9913 0.0000
vt 0.1179 1.0000 0.0000
vt 0.0992 0.9913 0.0000
vt 0.0992 1.0000 0.0000
vt 0.0110 0.9913 0.0000
vt 0.0110 1.0000 0.0000
vt -0.0000 0.9913 0.0000
vt -0.0000 1.0000 0.0000
vt 0.2174 1.0000 0.0000
vt 0.2174 0.9913 0.0000
vt 0.1932 0.9913 0.0000
vt 0.1932 1.0000 0.0000
vt 0.1591 0.9913 0.0000
vt 0.1591 1.0000 0.0000
vt 0.1266 0.9913 0.0000
vt 0.1266 1.0000 0.0000
vt 0.1019 0.9913 0.0000
vt 0.1019 1.0000 0.0000
vt 0.0715 0.9913 0.0000
vt 0.0715 1.0000 0.0000
vt 0.0426 0.9913 0.0000
vt 0.0426 1.0000 0.0000
vt 0.4222 0.5458 0.0000
vt 0.4235 0.5458 0.0000
vt 0.4235 0.5442 0.0000
vt 0.2338 1.0000 0.0000
vt 0.2354 1.0000 0.0000
vt 0.2354 0.9913 0.0000
vt 0.2338 0.9913 0.0000
vt 0.0097 0.9913 0.0000
vt 0.0091 0.9946 0.0000
vt 0.0083 1.0000 0.0000
vt 0.2310 0.9913 0.0000
vt 0.2323 1.0000 0.0000
vt 0.3822 0.0811 0.0000
vt 0.4300 0.2219 0.0000
vt 0.4300 0.0341 0.0000
vt -0.1754 -0.8761 0.9793
vt -0.1754 -0.1578 0.9793
vt -0.1771 -0.1578 0.9793
vt -0.2073 -0.8761 0.9793
vt -0.2073 -0.1039 0.9793
vt -0.1771 -0.1039 0.9793
vt -0.1771 -0.2146 0.1139
vt -0.1754 -0.2146 0.1139
vt -0.1754 -0.0548 0.1139
vt -0.2073 -0.0548 0.1139
vt -0.2073 -0.9693 0.1139
vt -0.1771 -0.6387 0.1139
vt -0.1771 -0.9693 0.1139
vt -0.1771 -0.8348 0.1139
vt -0.1754 -0.6387 0.1139
vt -0.1754 -0.8348 0.1139
vt -0.0061 -0.4633 0.5376
vt -0.0061 -0.1039 0.5376
vt -0.0741 -0.1039 0.5376
vt -0.0848 -0.1282 0.5376
vt -0.0073 -0.4644 0.5376
vt -0.0091 -0.4644 0.5376
vt -0.1005 -0.1460 0.5376
vt -0.1217 -0.1460 0.5376
vt -0.1351 -0.1317 0.5376
vt -0.1531 -0.1638 0.5376
vt -0.2546 -0.1039 0.5376
vt -0.3381 -0.1039 0.5376
vt -0.3377 -0.1086 0.5376
vt -0.2513 -0.1388 0.5376
vt -0.3424 -0.1299 0.5376
vt -0.3730 -0.1549 0.5376
vt -0.3954 -0.1578 0.5376
vt -0.3954 -0.8761 0.5376
vt -0.2513 -0.6053 0.5376
vt -0.2615 -0.5910 0.5376
vt -0.3094 -0.5893 0.5376
vt -0.2371 -0.6249 0.5376
vt -0.3125 -0.5679 0.5376
vt -0.3102 -0.5091 0.5376
vt -0.2646 -0.5074 0.5376
vt -0.2584 -0.4949 0.5376
vt -0.2262 -0.1584 0.5376
vt -0.2144 -0.1798 0.5376
vt -0.1908 -0.2279 0.5376
vt -0.1916 -0.4931 0.5376
vt -0.1696 -0.2403 0.5376
vt -0.2089 -0.6195 0.5376
vt -0.0061 -0.8761 0.5376
vt -0.0061 -0.7795 0.5376
vt -0.0091 -0.7795 0.5376
vt -0.0092 -0.7764 0.5376
vt -0.0093 -0.7741 0.5376
vt -0.0330 -0.7548 0.5376
vt -0.0432 -0.7103 0.5376
vt -0.0385 -0.6587 0.5376
vt -0.1979 -0.5821 0.5376
vt -0.1979 -0.5501 0.5376
vt -0.1869 -0.5234 0.5376
vt -0.0243 -0.6302 0.5376
vt -0.0196 -0.5750 0.5376
vt -0.0228 -0.5163 0.5376
vt -0.0188 -0.4753 0.5376
vt -0.0092 -0.4662 0.5376
vt -0.2073 -0.1039 0.0648
vt -0.2073 -0.4633 0.0648
vt -0.2056 -0.4633 0.0648
vt -0.1754 -0.1039 0.0648
vt -0.2056 -0.4644 0.0648
vt -0.2015 -0.4644 0.0648
vt -0.1955 -0.5130 0.0648
vt -0.1939 -0.5583 0.0648
vt -0.1939 -0.6856 0.0648
vt -0.1754 -0.8761 0.0648
vt -0.2005 -0.7561 0.0648
vt -0.2015 -0.7795 0.0648
vt -0.2073 -0.8761 0.0648
vt -0.2073 -0.7795 0.0648
vt 0.0000 0.2219 0.0000
vt 0.0339 0.1221 0.0000
vt 0.0152 0.1037 0.0000
vt 0.0000 0.0341 0.0000
vt 0.0291 0.0627 0.0000
# 182 texture coords

o Box02
g Box02
usemtl WallWhiteAged
s 32
f 57/57/14 58/58/14 59/59/14 
f 59/59/14 60/60/14 57/57/14 
s 64
f 61/61/15 62/62/15 58/63/15 
f 58/63/15 57/64/15 61/61/15 
s 1
f 63/65/16 64/66/16 65/67/16 
f 65/67/16 66/68/16 63/65/16 
s 4
f 64/66/17 63/65/17 67/69/17 
f 67/69/17 68/70/17 64/66/17 
s 1
f 68/70/18 67/69/18 69/71/18 
f 69/71/18 70/72/18 68/70/18 
s 4
f 70/72/19 69/71/19 71/73/19 
f 71/73/19 72/74/19 70/72/19 
s 1
f 72/74/20 71/73/20 73/75/20 
f 73/75/20 74/76/20 72/74/20 
s 4
f 73/75/21 75/77/21 76/78/21 
f 76/78/21 74/76/21 73/75/21 
s 1
f 76/78/22 75/77/22 77/79/22 
f 77/79/22 78/80/22 76/78/22 
s 4
f 77/79/23 79/81/23 80/82/23 
f 80/82/23 78/80/23 77/79/23 
s 1
f 80/82/24 79/81/24 81/83/24 
f 81/83/24 82/84/24 80/82/24 
s 2
f 82/84/25 81/83/25 83/85/25 
f 83/85/25 84/86/25 82/84/25 
s 1
f 84/86/26 83/85/26 85/87/26 
f 85/87/26 86/88/26 84/86/26 
s 2
f 87/89/27 88/90/27 89/91/27 
f 89/91/27 90/92/27 87/89/27 
s 4
f 90/92/28 89/91/28 91/93/28 
f 91/93/28 92/94/28 90/92/28 
s 2
f 92/94/29 91/93/29 93/95/29 
f 93/95/29 94/96/29 92/94/29 
s 4
f 93/95/30 95/97/30 96/98/30 
f 96/98/30 94/96/30 93/95/30 
s 2
f 97/99/31 98/100/31 99/101/31 
f 99/101/31 100/102/31 97/99/31 
s 1
f 99/101/32 101/103/32 102/104/32 
f 102/104/32 100/102/32 99/101/32 
s 2
f 102/104/33 101/103/33 103/105/33 
f 103/105/33 104/106/33 102/104/33 
s 1
f 104/106/34 103/105/34 105/107/34 
f 105/107/34 106/108/34 104/106/34 
s 2
f 106/108/35 105/107/35 107/109/35 
f 107/109/35 108/110/35 106/108/35 
s 1
f 108/110/36 107/109/36 109/111/36 
f 109/111/36 110/112/36 108/110/36 
s 2
f 110/112/37 109/111/37 111/113/37 
f 111/113/37 112/114/37 110/112/37 
s 1
f 112/114/38 111/113/38 113/115/38 
f 113/115/38 114/116/38 112/114/38 
s 2
f 113/115/39 115/117/39 116/118/39 
f 116/118/39 114/116/39 113/115/39 
s 1
f 115/117/40 117/119/40 118/120/40 
f 118/120/40 116/118/40 115/117/40 
s 2
f 117/119/41 119/121/41 120/122/41 
f 120/122/41 118/120/41 117/119/41 
s 4
f 120/122/42 119/121/42 121/123/42 
f 121/123/42 122/124/42 120/122/42 
s 1
f 122/124/43 121/123/43 98/125/43 
f 98/125/43 97/126/43 122/124/43 
f 123/127/44 124/128/44 125/129/44 
f 125/129/44 126/130/44 123/127/44 
s 4
f 125/129/45 127/131/45 128/132/45 
f 128/132/45 126/130/45 125/129/45 
s 1
f 127/131/46 129/133/46 130/134/46 
f 130/134/46 128/132/46 127/131/46 
s 4
f 130/134/47 129/133/47 131/135/47 
f 131/135/47 132/136/47 130/134/47 
s 1
f 131/135/48 133/137/48 134/138/48 
f 134/138/48 132/136/48 131/135/48 
s 2
f 133/137/49 135/139/49 136/140/49 
f 136/140/49 134/138/49 133/137/49 
s 1
f 137/141/50 138/142/50 139/143/50 
s 4
f 137/144/51 139/145/51 140/146/51 
f 140/146/51 141/147/51 137/144/51 
s 1
f 136/140/52 135/139/52 142/148/52 
f 136/140/52 142/148/52 143/149/52 
f 136/140/52 143/149/52 144/150/53 
s 2
f 145/151/51 124/128/51 123/127/51 
f 123/127/51 146/152/51 145/151/51 
s 1
f 147/153/54 148/154/54 149/155/54 
s 4
f 60/156/39 88/157/39 87/158/39 
f 57/159/39 60/156/39 87/158/39 
f 61/160/39 57/159/39 87/158/39 
f 61/160/39 87/158/39 150/161/39 
s 8
f 86/162/54 85/163/54 151/164/54 
f 86/162/54 151/164/54 62/165/54 
f 86/162/54 62/165/54 61/166/54 
f 65/167/54 86/162/54 61/166/54 
f 61/166/54 150/168/54 96/169/54 
f 65/167/54 61/166/54 96/169/54 
f 66/170/54 65/167/54 96/169/54 
f 66/170/54 96/169/54 95/171/54 
s 16
f 140/172/50 151/173/50 85/174/50 
f 140/172/50 85/174/50 83/175/50 
f 141/176/50 140/172/50 83/175/50 
f 152/177/50 141/176/50 83/175/50 
f 152/177/50 83/175/50 81/178/50 
f 79/179/50 77/180/50 75/181/50 
f 66/182/50 95/183/50 93/184/50 
f 63/185/50 66/182/50 93/184/50 
f 63/185/50 93/184/50 91/186/50 
f 89/187/50 88/188/50 60/189/50 
f 107/190/50 105/191/50 103/192/50 
f 109/193/50 107/190/50 103/192/50 
f 60/189/50 109/193/50 103/192/50 
f 60/189/50 103/192/50 101/194/50 
f 60/189/50 101/194/50 99/195/50 
f 89/187/50 60/189/50 99/195/50 
f 89/187/50 99/195/50 98/196/50 
f 89/187/50 98/196/50 121/197/50 
f 91/186/50 89/187/50 121/197/50 
f 63/185/50 91/186/50 121/197/50 
f 67/198/50 63/185/50 121/197/50 
f 69/199/50 67/198/50 121/197/50 
f 71/200/50 69/199/50 121/197/50 
f 71/200/50 121/197/50 119/201/50 
f 73/202/50 71/200/50 119/201/50 
f 111/203/50 109/193/50 60/189/50 
f 59/204/50 147/205/50 149/206/50 
f 60/189/50 59/204/50 149/206/50 
f 60/189/50 149/206/50 153/207/50 
f 60/189/50 153/207/50 142/208/50 
f 60/189/50 142/208/50 135/209/50 
f 60/189/50 135/209/50 133/210/50 
f 60/189/50 133/210/50 131/211/50 
f 111/203/50 60/189/50 131/211/50 
f 113/212/50 111/203/50 131/211/50 
f 115/213/50 113/212/50 131/211/50 
f 117/214/50 115/213/50 131/211/50 
f 117/214/50 131/211/50 129/215/50 
f 117/214/50 129/215/50 127/216/50 
f 117/214/50 127/216/50 125/217/50 
f 117/214/50 125/217/50 124/218/50 
f 119/201/50 117/214/50 124/218/50 
f 73/202/50 119/201/50 124/218/50 
f 75/181/50 73/202/50 124/218/50 
f 79/179/50 75/181/50 124/218/50 
f 81/178/50 79/179/50 124/218/50 
f 152/177/50 81/178/50 124/218/50 
f 152/177/50 124/218/50 145/219/50 
s 2
f 151/220/55 140/221/55 139/222/55 
f 62/223/55 151/220/55 139/222/55 
f 139/222/55 138/224/55 154/225/55 
f 62/223/55 139/222/55 154/225/55 
f 62/223/55 154/225/55 155/226/55 
f 62/223/55 155/226/55 156/227/55 
f 62/223/55 156/227/55 157/228/55 
f 58/229/55 62/223/55 157/228/55 
f 58/229/55 157/228/55 158/230/55 
f 58/229/55 158/230/55 148/231/55 
f 59/232/55 58/229/55 148/231/55 
f 59/232/55 148/231/55 147/233/55 
s 8
f 154/234/14 138/235/14 137/236/14 
f 152/237/14 154/234/14 137/236/14 
f 152/237/14 137/236/14 141/238/14 
# 156 faces

